<?xml version="1.0" encoding="utf-8"?>
<!-- Generator: Adobe Illustrator 28.0.0, SVG Export Plug-In . SVG Version: 6.00 Build 0)  -->
<svg version="1.1" id="Layer_1" xmlns="http://www.w3.org/2000/svg" xmlns:xlink="http://www.w3.org/1999/xlink" x="0px" y="0px"
	 viewBox="0 0 30 31" style="enable-background:new 0 0 30 31;" xml:space="preserve">
<g>
	<path d="M11.3,2c0.1,0.1,0.1,0.3,0.1,0.4v0.1c0,0.1,0,0.2,0,0.3s0,0.2,0,0.2c0,0.2,0,0.4,0,0.6c0,0.2,0,0.4,0,0.6
		c0,0.4,0,0.8,0,1.2c0.2,0,0.2-0.1,0.4-0.2c0,0,0,0,0.1-0.1L12,5c0.1-0.1,0.1-0.1,0.2-0.2l0.1-0.1c0.1-0.1,0.2-0.2,0.4-0.3
		c0.1-0.1,0.2-0.2,0.3-0.3c0.1-0.1,0.3-0.3,0.4-0.4c0.2-0.1,0.3-0.3,0.5-0.4c0.2-0.2,0.4-0.3,0.5-0.5c0.2-0.1,0.3-0.3,0.5-0.4
		C15,2.3,15.2,2.2,15.3,2c0.1-0.1,0.2-0.1,0.2-0.2c0.2,0.1,0.3,0.2,0.4,0.3c0.2,0.2,0.3,0.3,0.5,0.5c0.1,0.1,0.2,0.2,0.3,0.3
		c0.3,0.2,0.5,0.5,0.8,0.7c0.3,0.3,0.6,0.6,0.9,0.8c0.2,0.2,0.4,0.4,0.6,0.5c0.2,0.2,0.4,0.4,0.6,0.6c0.1,0.1,0.3,0.3,0.4,0.4
		s0.2,0.2,0.3,0.3c0.1,0.1,0.3,0.3,0.4,0.4C21,7,21.2,7.2,21.4,7.4c0.1,0.1,0.2,0.2,0.3,0.3C21.9,7.8,22,7.9,22.1,8
		c0.3,0.2,0.5,0.5,0.8,0.7c0.3,0.3,0.6,0.6,1,0.8c0.1,0.1,0.3,0.2,0.4,0.4c0.1,0.1,0.2,0.2,0.3,0.3c0.1,0.1,0.3,0.3,0.4,0.4
		c0.2,0.2,0.4,0.3,0.5,0.5c0.1,0.1,0.2,0.2,0.3,0.3c0.1,0.1,0.3,0.3,0.4,0.4c0.3,0.2,0.5,0.5,0.8,0.7c0.3,0.3,0.6,0.5,0.9,0.8
		c0.2,0.2,0.4,0.4,0.6,0.5c0.1,0.1,0.2,0.2,0.4,0.3c0.1,0.1,0.2,0.2,0.3,0.3c0.3,0.2,0.3,0.2,0.4,0.4c0,0.1,0,0.2-0.1,0.3
		s-0.1,0.1-0.2,0c-0.2,0-0.3-0.1-0.4-0.2l-0.1-0.1l-0.1-0.1c-0.1-0.1-0.1-0.1-0.2-0.2c-0.1-0.1-0.3-0.2-0.4-0.4
		c-0.2-0.2-0.3-0.3-0.5-0.4c-0.1-0.1-0.3-0.2-0.4-0.4c-0.1-0.1-0.3-0.2-0.4-0.4c-0.3-0.2-0.6-0.5-0.8-0.7c-0.2-0.2-0.4-0.4-0.6-0.5
		c-0.1-0.1-0.2-0.1-0.2-0.2c0,0,0,0-0.1-0.1c-0.2-0.2-0.4-0.4-0.7-0.6c-0.2-0.1-0.3-0.3-0.5-0.4c-0.3-0.2-0.5-0.4-0.7-0.7
		c-0.2-0.2-0.4-0.4-0.7-0.6c-0.2-0.2-0.5-0.4-0.7-0.6c-0.1-0.1-0.3-0.3-0.5-0.4C21.2,8,21.1,7.9,21,7.8c-0.2-0.1-0.3-0.3-0.5-0.4
		c-0.3-0.2-0.6-0.5-0.8-0.7c-0.2-0.2-0.4-0.4-0.6-0.5c-0.4-0.3-0.7-0.6-1.1-1c-0.2-0.2-0.4-0.4-0.7-0.6c-0.3-0.3-0.7-0.6-1-0.9
		c-0.1-0.1-0.3-0.3-0.4-0.4c-0.1-0.1-0.1-0.1-0.2-0.2C15.5,3,15.5,3,15.4,3s-0.2,0.1-0.3,0.2c-0.1,0.2-0.3,0.3-0.5,0.4
		c-0.1,0.1-0.2,0.2-0.3,0.3c-0.2,0.2-0.3,0.3-0.5,0.5c-0.1,0.1-0.2,0.2-0.3,0.3C13.4,4.9,13.2,5,13,5.2c-0.1,0.1-0.2,0.2-0.3,0.3
		c-0.1,0.1-0.3,0.3-0.4,0.4C12,6,11.8,6.2,11.6,6.4l-0.1,0.1c-0.1,0.1-0.1,0.2-0.1,0.4V7c0,0.1,0,0.1,0,0.2s0,0.1,0,0.2s0,0.3,0,0.4
		c0.1-0.1,0.2-0.2,0.3-0.4c0.7-1,1.8-1.7,3.1-1.9c1-0.1,1.9,0,2.8,0.4c0.1,0,0.1,0.1,0.2,0.1c0.5,0.2,0.8,0.5,1.2,0.9L19.1,7
		c0.8,0.8,1.2,1.9,1.3,3.1c0,0.1,0,0.1,0,0.2c0,1.3-0.4,2.5-1.4,3.4c-0.9,0.9-2.1,1.4-3.4,1.4c-1.5,0-2.7-0.6-3.7-1.7
		c-0.1-0.1-0.1-0.1-0.1-0.3c0.1-0.2,0.1-0.2,0.2-0.3c0.2,0,0.3,0,0.4,0.2c0,0.1,0.1,0.1,0.1,0.2c0.8,0.8,1.9,1.2,3,1.3
		c1.2,0,2.2-0.5,3-1.3s1.1-1.9,1.1-3c0-1.2-0.6-2.2-1.4-3c-0.8-0.7-1.9-1-3-1c-1.1,0.1-2.2,0.6-2.9,1.5c-1,1.4-1,3-0.9,4.6
		c0,0.2,0,0.4,0,0.5c0,0.3,0,0.7,0,1c0,0.4,0,0.8,0,1.2c0,0.8,0,1.6,0,2.4h0.1c1.2,0,2.3,0,3.5,0c0.6,0,1.1,0,1.7,0c0.5,0,1,0,1.5,0
		c0.3,0,0.5,0,0.8,0c0.2,0,0.5,0,0.7,0c0.1,0,0.2,0,0.3,0c0.1,0,0.2,0,0.4,0h0.1c0.2,0,0.2,0,0.3,0.1c0,0.1,0,0.1,0,0.2v0.1v0.1
		c0,0.1,0,0.1,0,0.2c0,0.2,0,0.3,0,0.5c0,0.1,0,0.2,0,0.4c0,0.3,0,0.5,0,0.8c0,0.4,0,0.8,0,1.1c0,0.6,0,1.2,0,1.8c0,0.6,0,1.2,0,1.8
		c0,0.1,0,0.1,0,0.1c0,0.2,0,0.4,0,0.6c0,1.5,0,3,0,4.6c-0.1,0.1-0.3,0.1-0.4,0c-0.1,0-0.1,0-0.2-0.1c0-0.2,0-0.3,0-0.5v-0.1
		c0-0.2,0-0.3,0-0.5c0-0.1,0-0.2,0-0.3c0-0.3,0-0.6,0-0.8c0-0.3,0-0.6,0-1c0-0.6,0-1.1,0-1.7s0-1.1,0-1.7V23c0-0.4,0-0.7,0-1.1v-0.1
		c0-0.2,0-0.2,0-0.4c0-0.4,0-0.8,0-1.2c0-0.2,0-0.5,0-0.7c0-0.1,0-0.2,0-0.3c0-0.2,0-0.3,0-0.5v-0.1c0-0.1,0-0.2,0-0.3
		c-0.1-0.1-0.2-0.1-0.3-0.1c-0.1,0-0.1,0-0.1,0c-0.1,0-0.1,0-0.1,0c-0.1,0-0.2,0-0.4,0c-0.1,0-0.2,0-0.3,0c-0.2,0-0.5,0-0.7,0
		s-0.5,0-0.7,0c-0.4,0-0.8,0-1.2,0c-0.5,0-0.9,0-1.4,0c-0.4,0-0.8,0-1.2,0c-0.2,0-0.5,0-0.7,0s-0.5,0-0.7,0c-0.1,0-0.2,0-0.3,0
		s-0.2,0-0.3,0h-0.1c-0.2,0-0.2,0-0.3,0.1c0,0.1,0,0.2,0,0.3c0,0.1,0,0.1,0,0.2s0,0.1,0,0.2s0,0.1,0,0.2c0,0.2,0,0.3,0,0.5
		s0,0.5,0,0.7c0,0.7,0,1.4,0,2.1c0,0.4,0,0.8,0,1.1c0,0.2,0,0.4,0,0.6s0,0.4,0,0.6c0,0.1,0,0.1,0,0.2c0,1.3-0.5,2.5-1.4,3.5
		c-1,1-2.2,1.3-3.6,1.3c-1,0-2.1-0.4-2.9-1.1l-0.1-0.1c-0.9-0.8-1.5-1.9-1.6-3.1c-0.1-1.4,0.4-2.6,1.3-3.7l0.1-0.1
		c0.6-0.7,1.5-1.1,2.4-1.3c0.1,0,0.1,0,0.1,0c1.2-0.2,2.5,0,3.5,0.7c0.4,0.3,0.9,0.6,1.2,1.1c0,0.1,0,0.2-0.1,0.4
		c-0.1,0.1-0.2,0.1-0.3,0c-0.3-0.1-0.5-0.3-0.7-0.6c-0.5-0.6-1.6-0.9-2.4-1c-1.1,0-2.1,0.3-3,1c-0.1,0.1-0.1,0.1-0.1,0.1
		c-0.1,0.1-0.1,0.1-0.2,0.1v0.1c-0.1,0.1-0.1,0.1-0.2,0.2c-0.3,0.4-0.5,0.8-0.7,1.3v0.1c-0.4,1-0.2,2.1,0.2,3.1c0.5,1,1.2,1.7,2.2,2
		c0.9,0.3,2,0.4,2.9,0c0,0,0.1,0,0.2-0.1c0.9-0.3,1.7-1.1,2.1-1.9c0.3-0.6,0.4-1.4,0.4-2.1c0-0.1,0-0.1,0-0.1c0-0.1,0-0.3,0-0.4
		s0-0.2,0-0.3c0-0.3,0-0.5,0-0.8c0-0.2,0-0.3,0-0.5c0-2.9,0-5.7,0-8.6c0-0.5,0-1,0-1.5v-0.1c0-0.2,0-0.4,0-0.6c0-1.5,0-3,0-4.5
		c-0.1,0-0.1,0.1-0.2,0.1c0,0,0,0-0.1,0.1s-0.2,0.1-0.3,0.2c0-0.2-0.1-0.1-0.2,0c-0.4,0.3-0.7,0.6-1,0.9C8.8,8.9,8.6,9.1,8.4,9.2
		C8.1,9.4,7.9,9.7,7.6,9.9c-0.1,0.1-0.3,0.3-0.5,0.4c-0.1,0.1-0.2,0.2-0.3,0.3c-0.2,0.2-0.3,0.3-0.5,0.5c-0.1,0.1-0.2,0.2-0.3,0.3
		c-0.2,0.1-0.3,0.3-0.5,0.4C5.2,12,5,12.2,4.8,12.5c-0.2,0.2-0.4,0.4-0.7,0.6c-0.1,0.1-0.2,0.2-0.3,0.3s-0.3,0.2-0.4,0.4
		c-0.3,0.2-0.6,0.5-0.8,0.7c-0.2,0.1-0.3,0.3-0.5,0.4c0,0-0.1,0-0.1,0.1c-0.1,0.1-0.2,0.2-0.4,0.2c-0.2-0.1-0.2-0.1-0.3-0.2
		c0-0.2,0-0.2,0.2-0.4c0.1,0,0.1-0.1,0.2-0.1l0.1-0.1C2,14.2,2.2,14,2.4,13.9c0.2-0.2,0.4-0.4,0.6-0.5c0.2-0.2,0.4-0.4,0.7-0.6
		c0.1-0.1,0.2-0.2,0.3-0.3c0-0.2,0.1-0.3,0.3-0.5c0.3-0.2,0.6-0.5,0.8-0.7c0.2-0.2,0.4-0.4,0.6-0.5c0.1-0.1,0.2-0.1,0.2-0.2
		c0,0,0.1,0,0.1-0.1c0.2-0.2,0.4-0.4,0.7-0.6C6.9,9.7,7,9.6,7.2,9.5C7.5,9.2,7.7,9,8,8.7c0.1-0.1,0.3-0.3,0.5-0.4
		C8.6,8.2,8.7,8.1,8.8,8C9,7.8,9.3,7.6,9.6,7.3c0.1,0,0.1-0.1,0.2-0.1c0,0,0,0,0.1-0.1c0.2-0.2,0.5-0.4,0.7-0.6
		c0.1-0.1,0.1-0.1,0.2-0.1c0-0.1,0-0.1,0-0.2c0-0.5,0-1,0-1.5c0-0.3,0-0.5,0-0.8c0-0.2,0-0.5,0-0.7c0-0.1,0-0.2,0-0.3s0-0.3,0-0.4
		V2.4c0-0.3,0-0.3,0.1-0.4C11,2,11.1,2,11.3,2z"/>
	<path d="M7.2,21.2c0.3,0.2,0.5,0.5,0.6,0.9c0,0.4,0,0.7-0.2,1c-0.3,0.3-0.4,0.4-0.8,0.4s-0.7,0-1-0.3c-0.2-0.2-0.3-0.5-0.4-0.8
		c0-0.4,0.2-0.7,0.5-1C6.2,21,6.8,20.9,7.2,21.2z"/>
	<path d="M16.2,11.5c0.3,0.2,0.5,0.5,0.5,0.8c0,0.5,0,0.8-0.4,1.1c-0.3,0.3-0.6,0.3-0.9,0.3c-0.3,0-0.6-0.2-0.8-0.4
		c-0.2-0.3-0.3-0.5-0.2-0.9s0.2-0.7,0.5-0.9C15.3,11.2,15.8,11.2,16.2,11.5z"/>
	<path d="M4.9,23.6c0.2,0.2,0.4,0.4,0.5,0.7c0.1,0.4,0,0.7-0.2,1.1c-0.2,0.2-0.4,0.4-0.7,0.4c-0.5,0-0.8,0-1.2-0.3
		C3.1,25.3,3,25,3,24.7c0-0.4,0.2-0.7,0.5-1C3.9,23.3,4.4,23.3,4.9,23.6z"/>
	<path d="M16.1,6.7c0.3,0.2,0.5,0.5,0.6,0.8c0,0.5,0,0.8-0.3,1.2C16.2,8.9,15.9,9,15.6,9c-0.4,0-0.7-0.1-1-0.4
		c-0.2-0.3-0.3-0.5-0.3-0.9c0.1-0.4,0.3-0.7,0.6-1C15.2,6.6,15.7,6.5,16.1,6.7z"/>
	<path d="M7.1,25.8c0.3,0.2,0.5,0.4,0.6,0.7c0.1,0.4,0.1,0.8-0.1,1.1C7.4,27.8,7.3,28,7,28.1c-0.4,0-0.8,0.1-1.1-0.2
		c-0.1,0-0.1-0.1-0.2-0.1c-0.2-0.2-0.3-0.5-0.3-0.8c0-0.4,0.1-0.7,0.4-1C6.2,25.8,6.7,25.6,7.1,25.8z"/>
	<path d="M18.5,9.1C18.7,9.3,19,9.5,19,9.8c0,0.1,0,0.2,0,0.3v0.1c0,0.3-0.1,0.5-0.3,0.8c0,0-0.1,0-0.1,0.1c0,0-0.1,0-0.1,0.1
		c-0.3,0.2-0.6,0.2-0.9,0.2c-0.3-0.1-0.6-0.2-0.8-0.4c-0.2-0.3-0.3-0.6-0.2-0.9c0.1-0.4,0.3-0.7,0.6-0.9C17.7,8.9,18.2,8.9,18.5,9.1
		z"/>
	<path d="M9.5,23.5c0.3,0.1,0.5,0.4,0.6,0.7c0.1,0.4,0.1,0.8-0.1,1.1c-0.2,0.3-0.4,0.4-0.8,0.5c-0.5,0-0.8,0-1.2-0.4
		c-0.2-0.2-0.3-0.5-0.3-0.8s0.2-0.7,0.4-0.9C8.5,23.4,9,23.3,9.5,23.5z"/>
	<path d="M13.9,9.1c0.3,0.2,0.5,0.4,0.5,0.7c0,0.4,0,0.7-0.2,1c-0.2,0.2-0.4,0.4-0.7,0.4c-0.1,0-0.1,0-0.2,0h-0.1
		c-0.4,0-0.6-0.1-0.9-0.4C12.1,10.6,12,10.3,12,10c0.1-0.4,0.2-0.7,0.5-0.9C13,8.9,13.4,8.9,13.9,9.1z"/>
	<path d="M6.8,24.4c0.1,0.1,0.1,0.1,0.1,0.3c0,0.2,0,0.2-0.1,0.3c-0.2,0-0.3,0-0.5-0.1c-0.1-0.1,0-0.2,0-0.3
		c0.1-0.1,0.1-0.1,0.1-0.2C6.6,24.3,6.7,24.3,6.8,24.4z"/>
	<path d="M15.7,9.9c0.1,0.2,0.1,0.3,0.1,0.5c0,0,0,0-0.2,0.1c-0.2,0-0.2,0-0.4-0.2c0-0.3,0-0.3,0.1-0.4C15.5,9.8,15.6,9.8,15.7,9.9z
		"/>
</g>
</svg>
