<?xml version="1.0" standalone="no"?>
<!DOCTYPE svg PUBLIC "-//W3C//DTD SVG 20010904//EN"
 "http://www.w3.org/TR/2001/REC-SVG-20010904/DTD/svg10.dtd">
<svg version="1.0" xmlns="http://www.w3.org/2000/svg"
 width="992.000000pt" height="992.000000pt" viewBox="0 0 992.000000 992.000000"
 preserveAspectRatio="xMidYMid meet">
<metadata>
Created by potrace 1.14, written by Peter Selinger 2001-2017
</metadata>
<g transform="translate(0.000000,992.000000) scale(0.100000,-0.100000)"
fill="#000000" stroke="none">
<path d="M5085 9300 c-22 -21 -60 -60 -85 -85 -24 -25 -47 -45 -51 -45 -11 0
-128 -102 -222 -195 -40 -39 -94 -88 -122 -110 -27 -22 -67 -56 -88 -75 -21
-19 -48 -41 -60 -50 -12 -8 -68 -61 -124 -118 -57 -57 -125 -118 -151 -136
-27 -18 -94 -77 -149 -132 -101 -100 -159 -146 -200 -159 -21 -6 -23 -3 -23
37 -1 24 -1 258 -1 521 -1 275 -5 480 -10 483 -5 3 -7 9 -4 14 3 5 -4 14 -15
20 -11 6 -20 8 -20 4 0 -3 -6 -1 -13 5 -8 6 -16 8 -19 5 -3 -3 -24 -5 -47 -6
-32 0 -44 -5 -53 -22 -9 -15 -12 -199 -13 -700 0 -619 -2 -680 -16 -685 -15
-5 -36 -22 -134 -106 -13 -11 -38 -31 -55 -45 -18 -14 -49 -42 -70 -62 -21
-20 -55 -46 -76 -57 -20 -11 -40 -24 -43 -29 -3 -4 -49 -44 -101 -87 -52 -44
-128 -110 -167 -149 -40 -38 -87 -79 -105 -90 -36 -22 -120 -101 -286 -268
-59 -59 -119 -113 -134 -119 -16 -6 -28 -15 -28 -20 0 -5 -4 -9 -10 -9 -5 0
-26 -17 -47 -38 -21 -21 -63 -57 -93 -79 -50 -38 -83 -69 -223 -210 -23 -24
-46 -43 -51 -43 -13 0 -92 -65 -167 -140 -122 -119 -189 -180 -198 -180 -5 0
-11 -3 -13 -8 -1 -4 -22 -22 -45 -40 -57 -45 -105 -107 -108 -141 -2 -29 -70
-105 -135 -151 -48 -34 -63 -47 -128 -109 -32 -29 -73 -64 -92 -76 -19 -12
-64 -49 -99 -81 -35 -33 -78 -69 -96 -81 -39 -27 -109 -88 -148 -130 -16 -18
-52 -46 -81 -63 -62 -38 -96 -85 -89 -124 7 -34 72 -79 113 -78 32 1 107 48
115 72 3 8 17 21 32 27 16 7 49 32 75 55 25 24 79 72 118 108 40 36 86 78 104
94 17 16 47 41 66 55 44 33 60 48 60 56 0 4 17 21 37 38 20 18 68 61 106 97
38 36 78 72 89 80 77 57 174 150 238 227 50 60 107 114 170 161 52 39 102 79
111 89 8 10 28 27 43 38 16 11 108 99 205 195 97 96 196 189 220 205 25 17 64
48 88 70 24 22 56 50 71 63 15 13 60 55 99 92 40 38 101 88 135 111 35 23 104
82 153 130 158 153 192 183 269 244 21 17 48 38 59 48 19 16 23 17 33 3 10
-14 16 -13 58 10 25 14 49 31 53 38 12 18 81 58 85 49 8 -17 1 -5663 -7 -5748
-5 -49 -9 -102 -9 -117 -1 -16 -4 -28 -8 -28 -3 0 -5 -8 -3 -17 1 -10 -3 -24
-9 -32 -6 -8 -9 -16 -8 -18 3 -3 -2 -41 -13 -93 -19 -95 -133 -308 -219 -410
-59 -69 -188 -191 -249 -234 -139 -99 -397 -212 -551 -242 -86 -16 -235 -24
-242 -12 -3 4 -13 4 -23 -2 -10 -5 -20 -7 -23 -5 -3 3 -33 7 -69 10 -35 2 -75
7 -89 10 -14 3 -41 8 -60 11 -106 19 -284 76 -370 119 -123 61 -262 174 -366
296 -33 40 -130 190 -159 249 -28 55 -82 202 -89 243 -3 12 -5 23 -7 25 -2 3
-12 41 -24 102 -8 39 -18 100 -20 129 -2 20 -4 38 -5 41 -6 16 -4 240 3 240 4
0 6 3 5 8 -5 17 13 112 22 117 6 4 8 10 5 15 -2 4 4 32 14 61 10 30 18 59 19
64 1 23 37 115 44 115 4 0 8 7 8 15 0 40 138 266 199 326 21 20 35 41 33 47
-1 5 5 13 16 16 10 4 34 22 53 40 39 39 227 166 246 166 7 0 13 5 13 10 0 6 3
9 8 8 4 -1 33 11 64 25 96 46 258 95 363 111 136 20 175 25 175 22 0 -2 -24
-11 -53 -21 -55 -17 -115 -60 -157 -110 -14 -16 -34 -39 -45 -50 -44 -43 -94
-150 -102 -214 -4 -39 0 -66 17 -113 12 -35 26 -67 31 -72 5 -6 9 -18 9 -28 0
-10 4 -18 8 -18 5 0 15 -12 23 -27 17 -32 56 -73 69 -73 6 0 10 -4 10 -8 0
-11 60 -37 115 -51 62 -16 254 -8 292 12 35 18 143 115 141 125 -1 4 6 23 15
43 9 20 17 47 19 60 2 13 6 29 9 34 3 6 5 48 4 95 0 65 -6 99 -25 145 -22 56
-103 175 -118 175 -4 0 -18 10 -32 23 -30 27 -92 58 -140 69 -24 5 -12 6 35 3
69 -5 182 -25 260 -47 22 -7 42 -12 45 -13 103 -22 323 -128 378 -182 7 -7 21
-18 31 -25 10 -7 39 -41 64 -75 67 -88 182 -174 247 -184 44 -8 74 31 87 112
8 55 -90 170 -247 287 -47 35 -92 69 -100 76 -19 15 -198 126 -205 126 -5 1
-61 24 -110 45 -16 7 -48 19 -70 25 -22 6 -47 14 -55 17 -8 4 -17 7 -20 8 -6
1 -91 19 -105 21 -5 1 -12 3 -15 4 -6 3 -76 11 -112 13 -16 1 -28 4 -28 7 0 8
-267 4 -335 -5 -33 -4 -78 -9 -100 -10 -22 -2 -40 -4 -40 -5 0 -1 -12 -4 -27
-6 -42 -7 -205 -59 -274 -88 -60 -24 -207 -100 -229 -117 -5 -5 -44 -35 -85
-67 -64 -51 -168 -153 -220 -218 -8 -11 -42 -59 -75 -109 -33 -49 -63 -92 -66
-95 -10 -9 -106 -203 -131 -265 -70 -172 -106 -373 -103 -567 3 -127 5 -153
20 -242 9 -55 63 -233 80 -266 8 -15 11 -30 8 -34 -4 -3 -1 -6 5 -6 7 0 11 -3
10 -7 -3 -12 47 -108 95 -185 82 -132 210 -279 352 -403 49 -43 165 -119 247
-163 79 -42 268 -115 323 -126 17 -3 52 -10 78 -16 148 -30 407 -33 587 -5 91
14 196 38 257 57 38 12 71 23 76 24 4 1 8 2 10 4 1 1 11 3 22 5 11 2 21 9 23
14 2 6 11 11 19 11 9 0 50 19 92 41 165 90 295 198 396 329 28 36 53 67 58 68
4 2 7 10 7 17 0 7 4 15 8 17 15 6 100 152 146 248 70 151 122 325 143 484 3
23 7 559 9 1191 3 1117 4 1150 22 1166 17 13 166 15 1390 15 1291 -1 1372 -2
1389 -18 16 -17 17 -120 18 -1843 0 -1812 0 -1824 20 -1839 11 -9 25 -14 32
-11 6 2 16 -2 22 -9 14 -16 57 -18 92 -5 l25 10 0 1969 c-1 1782 -3 1971 -17
1985 -14 14 -160 16 -1502 16 l-1487 0 0 22 c0 12 -2 429 -5 927 -2 498 -5
970 -6 1050 -2 128 5 292 15 346 2 11 7 44 12 74 8 58 10 68 13 73 2 1 5 20 7
42 11 87 139 422 166 433 4 2 8 9 8 15 0 11 57 99 95 146 27 34 135 140 171
168 71 55 83 63 93 63 6 0 11 4 11 9 0 13 240 132 251 125 5 -3 9 -1 9 3 0 5
21 15 48 23 26 7 49 14 52 15 3 1 23 5 45 10 56 13 55 12 58 15 24 19 250 29
362 15 28 -4 64 -8 80 -10 42 -5 97 -15 117 -21 9 -3 26 -7 37 -9 12 -3 30 -7
41 -10 34 -7 142 -46 184 -66 22 -11 46 -19 53 -19 7 0 13 -3 13 -8 0 -4 15
-14 33 -22 17 -7 37 -18 42 -22 6 -4 37 -26 70 -47 54 -36 203 -171 187 -171
-3 0 4 -9 15 -19 31 -29 104 -126 151 -202 66 -105 130 -252 158 -364 34 -133
42 -352 19 -510 -7 -49 -10 -93 -8 -97 2 -5 -1 -8 -7 -8 -6 0 -9 -4 -6 -8 10
-17 -57 -221 -107 -321 -28 -57 -75 -136 -105 -175 -152 -200 -409 -386 -642
-466 -64 -22 -81 -26 -130 -36 -14 -3 -32 -7 -40 -9 -66 -19 -253 -25 -345
-12 -43 6 -83 13 -183 33 -92 19 -336 116 -416 167 -48 29 -147 97 -161 109
-62 53 -105 98 -121 128 -45 84 -65 97 -139 91 -23 -2 -65 -73 -69 -116 -2
-37 2 -43 93 -135 169 -169 295 -259 490 -350 59 -28 198 -76 246 -86 17 -3
68 -15 85 -19 3 -1 32 -5 65 -9 33 -5 74 -10 90 -12 60 -8 260 -4 344 7 325
41 600 171 860 404 106 95 230 242 276 328 11 20 23 37 27 37 5 0 8 7 8 16 0
8 12 35 26 60 14 24 22 44 17 44 -4 0 -3 4 3 8 24 16 97 284 111 407 7 64 11
359 5 370 -4 5 -7 23 -9 40 -2 31 -10 80 -13 80 -1 0 -3 14 -5 30 -2 17 -7 41
-12 55 -4 14 -8 30 -8 35 -1 8 -16 61 -30 105 -1 3 -5 12 -8 20 -3 8 -17 45
-30 81 -14 36 -35 85 -47 110 -13 24 -21 44 -19 45 2 0 -3 9 -11 19 -15 18
-34 48 -46 75 -4 8 -10 17 -13 20 -4 3 -26 32 -50 65 -41 55 -220 239 -300
308 -50 44 -146 103 -206 128 -30 12 -55 26 -55 31 0 4 -8 8 -18 8 -10 0 -22
4 -28 9 -8 7 -126 49 -229 81 -32 10 -190 38 -215 39 -8 0 -33 2 -55 5 -85 11
-369 6 -405 -8 -8 -3 -31 -7 -50 -10 -19 -3 -73 -17 -120 -31 -47 -14 -92 -27
-101 -30 -9 -2 -60 -24 -113 -49 -242 -114 -452 -290 -583 -489 -47 -71 -93
-126 -94 -111 -5 77 3 348 11 369 20 51 209 215 249 215 8 0 73 58 145 129 72
72 149 145 170 163 22 18 49 44 60 58 66 80 395 401 430 420 52 27 73 45 113
96 17 22 47 48 65 58 29 16 39 16 77 6 35 -9 64 -31 141 -108 116 -116 208
-202 275 -259 28 -23 68 -58 90 -78 22 -20 72 -62 110 -93 39 -30 121 -105
184 -166 63 -61 128 -125 145 -141 61 -59 162 -143 227 -188 36 -25 110 -89
165 -144 109 -106 193 -183 200 -183 14 0 137 -100 263 -216 31 -27 79 -66
106 -86 28 -20 66 -53 85 -73 19 -20 64 -60 100 -88 36 -29 81 -66 100 -84 19
-17 54 -45 77 -62 81 -58 166 -139 209 -198 44 -60 138 -149 196 -186 29 -19
62 -45 73 -57 11 -12 62 -53 112 -91 104 -77 230 -192 238 -218 3 -9 18 -24
34 -34 61 -36 135 -97 243 -203 63 -60 136 -127 163 -149 28 -22 109 -99 180
-171 72 -72 146 -139 163 -148 41 -21 75 -49 121 -101 20 -22 63 -64 95 -95
32 -30 92 -88 132 -128 81 -79 128 -112 160 -112 12 0 27 -7 34 -15 16 -19 45
-4 65 35 31 59 12 115 -53 160 -19 14 -61 50 -92 80 -31 30 -70 62 -85 70 -16
8 -42 28 -59 43 -16 16 -51 43 -76 60 -25 16 -71 55 -104 86 -32 31 -73 70
-90 86 -17 17 -58 52 -91 79 -33 27 -66 56 -72 65 -7 8 -13 13 -13 10 0 -5
-73 60 -189 168 -42 39 -90 82 -106 94 -17 13 -87 82 -157 154 -174 177 -163
167 -340 339 -87 84 -158 156 -158 160 0 20 -85 89 -207 170 -45 30 -117 88
-160 129 -43 41 -94 88 -113 103 -19 16 -57 51 -85 78 -67 66 -224 196 -235
196 -18 0 -245 235 -304 316 -36 47 -581 593 -615 614 -27 17 -88 69 -141 120
-21 19 -47 42 -60 50 -13 8 -39 30 -57 48 -19 17 -36 32 -38 32 -3 0 -40 35
-84 78 -44 42 -93 88 -109 102 -71 59 -207 186 -356 332 -134 131 -222 209
-238 208 -2 0 -21 -18 -43 -40z"/>
<path d="M5095 7808 c-147 -14 -159 -19 -227 -100 -78 -92 -140 -227 -133
-288 11 -87 34 -152 78 -225 28 -46 110 -106 181 -132 64 -24 220 -26 283 -3
71 25 138 73 153 110 7 16 16 30 21 30 5 0 9 9 9 19 0 11 4 22 9 25 5 3 12 23
16 43 5 21 10 45 12 53 2 8 5 53 6 99 3 73 0 91 -21 135 -85 177 -209 252
-387 234z"/>
<path d="M4263 7039 c-86 -21 -120 -38 -154 -76 -91 -100 -128 -266 -86 -380
45 -121 166 -222 289 -241 97 -15 208 -7 261 18 83 39 160 127 173 199 3 14 8
29 11 34 12 19 13 202 2 245 -14 51 -75 123 -132 156 -99 58 -242 75 -364 45z"/>
<path d="M5825 7040 c-166 -39 -284 -145 -340 -305 -24 -66 -26 -235 -3 -235
4 0 8 -9 8 -20 0 -11 5 -20 10 -20 6 0 10 -7 10 -15 0 -22 65 -82 119 -110 95
-48 161 -65 236 -60 75 4 78 5 143 25 39 12 112 72 112 92 0 4 6 8 13 8 23 0
94 134 100 189 2 17 6 34 10 37 3 3 2 17 -3 30 -5 13 -6 24 -2 24 10 0 6 65
-4 82 -5 7 -3 8 6 3 8 -5 11 -4 7 2 -3 5 -9 25 -12 44 -8 46 -27 73 -97 142
-66 65 -120 92 -187 96 -25 1 -47 3 -50 5 -3 1 -37 -5 -76 -14z"/>
<path d="M5084 6764 c-44 -18 -58 -40 -59 -93 -1 -50 13 -74 57 -97 35 -18 60
-18 102 3 33 15 35 18 31 60 -10 119 -53 160 -131 127z"/>
<path d="M5050 6301 c-139 -46 -212 -123 -261 -275 -30 -89 -45 -206 -28 -206
5 0 6 -6 3 -13 -8 -21 53 -129 93 -165 83 -75 176 -111 276 -106 70 3 157 24
157 38 0 5 3 6 6 3 10 -10 112 76 149 125 6 7 16 21 23 30 22 28 35 109 35
218 0 107 -29 176 -102 241 -67 60 -69 62 -126 89 -53 26 -175 38 -225 21z"/>
<path d="M1426 2423 c-69 -20 -114 -52 -180 -125 -81 -89 -127 -191 -127 -283
-1 -39 20 -137 32 -151 5 -6 7 -13 4 -15 -7 -8 72 -104 84 -101 6 1 11 -2 11
-7 0 -10 86 -53 115 -57 11 -1 40 -7 65 -12 77 -15 220 -8 260 13 99 51 153
120 190 244 19 60 22 87 16 149 -3 41 -11 81 -17 88 -6 8 -8 14 -3 14 5 0 4 4
-1 8 -6 4 -17 20 -24 35 -24 46 -118 143 -158 164 -89 46 -189 60 -267 36z"/>
<path d="M2995 2433 c-99 -11 -201 -57 -258 -118 -41 -43 -96 -146 -101 -186
-1 -14 -5 -29 -8 -34 -6 -13 -3 -90 6 -139 25 -129 173 -268 301 -283 81 -10
164 -9 206 2 27 7 49 10 49 7 0 -4 4 -1 9 6 4 7 14 14 22 15 27 4 98 62 121
99 13 21 26 38 29 38 6 0 15 25 20 55 1 6 6 21 11 35 12 31 10 193 -3 220 -1
3 -3 10 -4 15 -3 20 -48 115 -54 115 -3 0 -12 12 -19 28 -22 48 -124 104 -217
117 -67 10 -79 11 -110 8z"/>
<path d="M2240 2125 c-19 -7 -34 -18 -32 -25 2 -7 -3 -20 -10 -29 -21 -26 -34
-55 -32 -71 0 -8 2 -22 2 -31 4 -36 156 -66 181 -35 18 22 25 113 11 147 -9
22 -65 62 -82 58 -1 0 -19 -6 -38 -14z"/>
<path d="M2201 1674 c-154 -42 -221 -92 -272 -199 -37 -81 -49 -174 -35 -277
5 -31 48 -125 68 -148 15 -17 74 -60 83 -60 4 0 21 -11 38 -24 46 -33 98 -43
220 -41 124 3 150 14 235 104 83 88 104 139 104 256 -1 53 -7 131 -12 145 -2
3 -2 8 -1 13 0 4 -3 7 -9 7 -5 0 -10 7 -10 15 0 50 -122 177 -202 209 -45 18
-142 18 -207 0z"/>
</g>
</svg>
