<?xml version="1.0" encoding="utf-8"?>
<!-- Generator: Adobe Illustrator 28.0.0, SVG Export Plug-In . SVG Version: 6.00 Build 0)  -->
<svg version="1.1" id="Layer_1" xmlns="http://www.w3.org/2000/svg" xmlns:xlink="http://www.w3.org/1999/xlink" x="0px" y="0px"
	 viewBox="0 0 988 1280" style="enable-background:new 0 0 988 1280;" xml:space="preserve">
<style type="text/css">
	.st0{fill:#FFFFFF;}
</style>
<g>
	<path class="st0" d="M387.3,286.6c1.8,3.7,1.5,6.9,1.5,11c0,0.9,0,1.7,0,2.7c0,2.9,0.1,5.9,0.1,8.8c0,2.1,0,4,0.1,6.1
		c0,5.4,0.1,10.6,0.1,16c0,5.5,0.1,10.8,0.2,16.3c0.1,10.6,0.2,21.3,0.4,31.9c4-0.9,6-2,9-4.8c1.1-1.1,1.1-1.1,2.3-2.2
		c0.7-0.7,1.6-1.6,2.4-2.3c1.7-1.6,3.3-3.2,5-4.8c0.7-0.7,1.6-1.5,2.4-2.3c3-2.9,6.3-5.7,9.5-8.5c2.8-2.4,5.6-5,8.4-7.4
		c3.7-3.3,7.2-6.5,10.8-9.6c3.9-3.4,7.8-6.9,11.7-10.5c4.6-4.3,9.3-8.4,14-12.4c3.9-3.4,7.8-6.9,11.7-10.5c3.5-3.2,7.1-6.3,10.7-9.4
		c2-1.8,3.9-3.7,5.7-5.5c4.3,1.8,6.8,4.3,10,7.6c4.1,4.3,8.4,8.3,12.9,12.2c2.9,2.6,5.9,5.1,8.7,7.7c6.5,5.9,13,11.6,19.6,17.2
		c8.3,7.1,16.3,14.1,24.1,21.6c5.1,4.9,10.5,9.3,16.1,13.8c5.7,4.8,11.2,10,16.6,15.1c3.7,3.5,7.4,6.8,11.3,10.1
		c2.8,2.4,5.6,5,8.4,7.6c3.7,3.3,7.3,6.6,11,9.8c4.8,4.1,9.4,8.4,14.1,12.6c2.6,2.3,5.2,4.6,7.8,6.9c3.7,3.2,7.3,6.5,11,9.8
		c6.5,5.9,13,11.7,19.7,17.3c8.3,7.1,16.5,14.3,24.5,21.7c3.5,3.2,7.1,6.3,10.6,9.4c2.8,2.6,5.7,5,8.5,7.6c3.7,3.3,7.3,6.6,11,9.8
		c4.8,4.1,9.4,8.4,14.1,12.6c2.6,2.3,5.2,4.6,7.8,6.9c3.7,3.2,7.3,6.5,11,9.8c6.5,5.9,13,11.6,19.7,17.3
		c7.9,6.7,15.7,13.7,23.3,20.7c5.2,4.9,10.6,9.3,16.2,13.8c3.4,2.8,6.5,5.9,9.4,8.9c2.3,2.3,4.8,4.4,7.2,6.5
		c7.1,6.2,7.1,6.2,9.5,10.2c-0.1,3.5-0.7,5.4-2.7,8.4c-2.2,1.3-2.2,1.3-5.6,1.1c-4.5-1.2-6.5-2.8-9.9-6c-1.1-1-2.1-2-3.2-3
		c-1-1-2.1-2-3-2.9c-1.6-1.5-3.3-2.8-4.9-4.3c-3.7-3.2-7.2-6.3-10.7-9.6c-4.3-3.9-8.8-7.6-13.3-11.2c-3.8-3-7.3-6.1-10.7-9.6
		c-3.3-3.4-6.7-6.3-10.4-9.3c-7.4-6-14.4-12.6-21.5-19.1c-5.1-4.8-10.4-9.4-15.7-14c-2.1-1.8-4.3-3.7-6.3-5.4c-1.1-1-1.1-1-2.2-1.8
		c-5.7-4.9-11.3-10-16.8-15.2c-3.9-3.7-7.9-7.1-12.2-10.5c-6.7-5.4-12.9-11.3-19.3-17.3c-5.5-5.2-11.2-10-17.2-14.8
		c-6.1-5.1-11.8-10.6-17.6-16.1c-3.8-3.5-7.7-7.1-11.7-10.5c-2.8-2.4-5.5-4.9-8.2-7.3c-4.1-3.7-8.3-7.3-12.7-10.7
		c-7.4-6-14.3-12.4-21.2-19c-5.1-4.9-10.4-9.4-15.7-14c-9.4-7.9-18.5-16.1-27.5-24.5c-5.6-5.1-11.3-10.1-17.1-15
		c-8.7-7.4-17.2-15-25.5-22.7c-3.7-3.4-7.4-6.8-11.3-10.1c-1.8-1.6-3.5-3.2-5.4-4.8c-2.6-2.1-2.6-2.1-5.1-1.6
		c-2.9,1.1-4.3,2.4-6.5,4.8c-3.7,3.9-7.6,7.4-11.7,11c-2.9,2.6-5.9,5.1-8.8,7.8c-4.4,4-8.9,7.9-13.3,11.8c-2.9,2.6-5.7,5.1-8.7,7.7
		c-4.4,4-8.9,7.9-13.3,11.8c-2.9,2.6-5.7,5.1-8.7,7.7c-3.7,3.3-7.3,6.6-11,9.8c-5.7,5-11.5,10.1-17.1,15.2c-0.9,0.7-1.7,1.5-2.6,2.2
		c-2.9,3.4-2.9,5-2.8,9.3c0,1.2,0,2.6,0,3.8c0,1.3,0.1,2.6,0.1,3.9s0,2.7,0,4c0.1,3.3,0.1,6.5,0.2,9.8c3-2.9,5.4-6,7.7-9.5
		c19-26.2,47.1-44.1,79.1-49.5c25.7-3.8,49.1-1,72.9,10.2c1.5,0.6,2.9,1.3,4.4,2.1c11.7,5.7,20.6,13,29.7,22.3c1,1,2,2,3,2.9
		c20.2,21.1,31.3,49.6,32.3,78.7c0.1,2.2,0.1,2.2,0.2,4.4c0.9,34.4-11.2,63-35,88.1c-22.9,23.6-53.9,35.2-86.5,35.8
		c-37.7-0.6-69.4-16.3-95.7-42.9c-2.4-3.7-2.4-3.7-2.3-6.6c1.3-3.9,2.6-5.6,6-8c5.1,0,7.1,1,10.8,4.4c1.2,1.3,2.4,2.7,3.8,4.1
		c20.1,21.1,48,31.3,76.8,32.2c30.5,0.2,55.7-11.9,77.5-32.9c20.8-21.7,28.2-48.5,27.5-77.9c-1.1-30.4-14.9-56.9-36.8-77.4
		c-21.6-17.6-49.1-25.8-76.8-24.4c-27.9,3.3-56.3,16.5-74.6,38.4c-25.6,35.2-24.4,76.2-24.3,117.9c0,4.6,0,9.1,0,13.8
		c0,8.7,0,17.3,0,26c0,9.9,0,19.7,0,29.6c0,20.2,0,40.6,0,60.8c1.2,0,2.4,0,3.8,0c30,0.1,60.1,0.2,90.1,0.4
		c14.5,0.1,29,0.1,43.6,0.2c12.7,0,25.4,0.1,38,0.1c6.7,0,13.4,0,20.1,0.1c6.3,0,12.6,0,18.9,0.1c2.3,0,4.6,0,6.9,0
		c3.2,0,6.3,0,9.5,0c1,0,1.8,0,2.8,0c6.3,0.1,6.3,0.1,7.7,1.5c0.1,1.7,0.1,3.4,0.1,5.1c0,1.1,0,2.2,0,3.3c0,1.2,0,2.4,0,3.7
		c0,2,0,2,0,3.9c0,4.4,0,8.7,0,13c0,3,0,6.2,0,9.3c0,6.7,0,13.4,0,20.1c0,9.6,0,19.4,0,29c0,15.7,0,31.3,0,47.1
		c0,15.2,0,30.5,0,45.7c0,1.5,0,1.5,0,2.8c0,4.8,0,9.4,0,14.1c0,39.1,0,78.3,0,117.3c-3.8,1.8-6.8,1.5-11,1.2
		c-2.7-1.1-2.7-1.1-4.9-3.7c-0.7-3.9-0.6-7.7-0.6-11.6c0-1.2,0-2.4,0-3.7c0-4,0-8.2,0-12.2c0-2.9,0-5.9,0-8.8c0-7.1,0-14.1,0.1-21.2
		c0-8.3,0-16.5,0-24.7c0-14.6,0-29.4,0.1-44.1c0-14.3,0.1-28.5,0.1-42.8c0-0.9,0-1.7,0-2.7c0-9.6,0-19.1,0.1-28.8c0-0.9,0-1.7,0-2.6
		c0-5,0-5,0-10.1c0-10.7,0-21.3,0.1-32.1c0-6.1,0-12.2,0-18.3c0-2.8,0-5.7,0-8.5c0-3.9,0-7.7,0-11.6c0-1.1,0-2.3,0-3.4
		c0-2.7,0-5.2-0.1-7.9c-2.1-2.1-4.5-1.3-7.2-1.3c-1.3,0-1.3,0-2.6,0c-1.3,0-1.3,0-2.8,0c-3,0-6.1,0-9.3,0c-2.2,0-4.4,0-6.6,0
		c-6,0-11.9,0-17.9,0c-6.2,0-12.4,0-18.8,0c-10.5,0-21,0-31.5,0c-12.2,0-24.3,0-36.4,0c-10.4,0-20.8,0-31.2,0c-6.2,0-12.4,0-18.7,0
		c-5.9,0-11.7,0-17.6,0c-2.2,0-4.3,0-6.5,0c-2.9,0-5.9,0-8.8,0c-0.9,0-1.7,0-2.6,0c-3.9-0.4-3.9-0.4-7.2,1.3
		c-0.1,2.4-0.1,4.8-0.1,7.2c0,1.6,0,3.2,0,4.8c0,1.7,0,3.5,0,5.2c0,1.8,0,3.7,0,5.5c0,3.9,0,7.8,0,11.8c0,6.2,0,12.4,0,18.7
		c-0.1,17.7-0.1,35.5-0.1,53.1c0,9.8-0.1,19.5-0.1,29.3c0,5.1,0,10.4,0,15.5c0,4.9,0,9.8,0,14.6c0,1.8,0,3.5,0,5.4
		c0.1,34.5-11.9,64.2-35.8,89c-26.1,25.1-57,34.6-92.6,34.4c-26.6-0.6-53.1-11-73.1-28.4c-1-0.9-2-1.7-3-2.6
		c-23.8-20.7-38.3-48.6-40.8-80.3c-2-36.6,9.3-67.4,32.9-95.1c0.7-0.9,1.3-1.6,2.1-2.4c16-17.3,38.8-28.5,61.3-34.1
		c1.7-0.4,1.7-0.4,3.3-0.9c30.1-6.2,63.6-0.1,89.4,16.7c11.1,7.9,22.9,16.7,30.5,28c0.4,3.8,0.6,6.3-1.3,9.6
		c-2.9,1.6-5.1,1.8-8.4,1.2c-6.6-2.8-12.1-9-16.7-14.3c-13.8-15.7-40.7-24.4-61-26.1c-29.4-1.3-53.9,6.7-77.3,24.6
		c-1.6,1.7-1.6,1.7-3.3,3.3c-2.9,2.6-2.9,2.6-5.4,2.6c-0.4,0.7-0.7,1.5-1,2.2c-1.5,2.7-1.5,2.7-4.6,6.2c-8.2,9.4-13.7,20.6-18,32.2
		c-0.2,0.7-0.6,1.5-0.9,2.3c-9.4,26-6.1,54.5,5.1,79.4c11.7,24.4,31.9,42.5,57.2,52.2c24.4,7.9,51.2,9.8,75.6,1.2
		c1.2-0.4,2.6-0.9,3.9-1.3c23-8.7,42.5-27.1,54-48.5c7.4-16.2,10.5-35.1,10.6-52.9c0-1.5,0-1.5,0-2.9c0-3.3,0.1-6.5,0.1-9.8
		c0-2.3,0-4.8,0.1-7.1c0-6.5,0.1-12.9,0.1-19.5c0-4.1,0.1-8.3,0.1-12.4c0.7-73.4,0.6-146.9,0.6-220.4c0-13.2,0-26.5,0-39.6
		c0-1,0-2,0-2.9c0-4.8,0-9.5,0-14.3c0-38.6,0-77.3,0-116c-1.3,1.2-2.7,2.3-4.1,3.5c-1.1,1-1.1,1-2.3,2c-2.2,1.8-4.3,3.8-6.5,5.6
		c-3,2.7-6.1,5.4-9.3,7.9c-8.3,6.9-16.3,14.1-24.1,21.6c-4.1,3.9-8.4,7.6-12.8,11.1c-7.3,5.9-14,12.3-20.8,18.7
		c-3.8,3.5-7.7,7.1-11.7,10.5c-2.8,2.4-5.6,5-8.4,7.4c-4.4,4-8.9,7.9-13.4,11.8c-2.8,2.4-5.6,5-8.4,7.6c-4.1,3.7-8.3,7.3-12.7,10.7
		c-6.5,5.2-12.6,10.8-18.5,16.6c-5.6,5.2-11.3,10.1-17.3,14.9c-2.6,2.1-4.9,4.3-7.1,6.6c-3.3,3.4-6.7,6.3-10.4,9.3
		c-7.4,6-14.4,12.6-21.3,19.1c-3.9,3.7-7.9,7.3-11.9,10.7c-1.3,1.2-2.7,2.3-3.9,3.7c-3.2,2.9-4.8,4.1-9.1,4.3c-4-1.5-6-2.7-8.4-6.2
		c0.1-4.5,1.2-6.1,4.4-9.5c1.3-1.2,2.7-2.4,4-3.7c0.7-0.6,1.5-1.3,2.2-2c5.2-4.8,10.7-9.1,16.3-13.7c5.2-4.4,10.1-9.1,15.1-13.8
		c5.6-5.2,11.3-10.1,17.3-14.9c2.6-2.1,4.9-4.3,7.1-6.6c3.3-3.4,6.7-6.3,10.4-9.3c7.4-6,14.4-12.6,21.5-19.1
		c5.1-4.8,10.4-9.4,15.7-14c2.1-1.8,4.3-3.7,6.3-5.4c0.7-0.6,1.5-1.2,2.2-1.8c5.7-4.9,11.3-10,16.8-15.2c3.9-3.7,8-7.2,12.3-10.6
		c7.3-5.9,14.1-12.3,21-18.8c3.8-3.5,7.7-7.1,11.7-10.5c2.8-2.4,5.6-5,8.4-7.4c6.5-5.9,13-11.7,19.7-17.3c1.5-1.2,2.9-2.4,4.4-3.7
		c1.1-1,1.1-1,2.2-1.8c6.3-5.4,12.3-11,18.4-16.6c2.8-2.6,2.8-2.6,5.2-3.8c0-1.3,0-2.7,0-4c0.1-12.6,0.1-25.1,0.2-37.7
		c0-6.5,0.1-12.9,0.1-19.4c0-6.2,0.1-12.4,0.1-18.7c0-2.4,0-4.8,0-7.2c0-3.3,0-6.7,0.1-10c0-1,0-2,0-3c0.1-6.7,0.1-6.7,2.2-9.8
		C379.2,285.5,383,286.3,387.3,286.6z"/>
	<path class="st0" d="M282.8,778.7c7.1,5.5,12.9,13.4,14.3,22.3c0.6,9.1-0.2,18.5-5.9,26.1c-6.5,6.7-11.5,9.5-21,9.8
		c-11,0-18-1-26.5-8.5c-5.6-5.9-8.5-12.4-9-20.6c0.5-9.9,4.3-18.9,11.6-25.6C256.7,774.3,271,771.6,282.8,778.7z"/>
	<path class="st0" d="M514.1,529.2c6.9,6.2,11.7,12.2,12.6,21.6c0.2,12.3-1,20.2-9.3,29.5c-7.1,6.6-14.9,6.7-24.1,6.6
		c-8.4-0.7-15.8-5.4-21.8-11.2c-4.8-6.8-7.6-13.5-6.1-21.9c1.8-9.6,5.5-18,13.7-23.9C490.8,522.9,502.1,522.1,514.1,529.2z"/>
	<path class="st0" d="M223.4,840.5c6.3,4.4,11.1,10.5,13.2,17.9c1.5,10.1,1.1,18.8-4.3,27.7c-4.5,6-10.8,9.9-18.2,11.2
		c-12.2,0.9-21-1.1-30.6-8.7c-5.6-5.6-8.7-12.6-9-20.6c0.6-10,4.4-18.3,11.7-25C198.2,833.9,210.3,833.3,223.4,840.5z"/>
	<path class="st0" d="M509.9,405.8c7.7,4.3,13.7,12.8,16.3,21c0.9,12.2,0.1,21.2-7.6,30.8c-6.5,6.8-12.4,8.3-21.7,8.7
		c-11.1-0.4-17.7-3.7-25.7-11.3c-6-6.5-6.8-13.3-6.6-21.8c1.5-9.9,6.5-18.4,14.3-24.5C487.7,403.2,500,402.9,509.9,405.8z"/>
	<path class="st0" d="M280.2,897.8c6.8,4,12.8,10.4,15.8,17.7c2.6,10,2,20.2-2.7,29.4c-4.1,6.2-8.5,10.2-15.8,12.2
		c-10.4,1.1-20.6,1.6-29.3-4.9c-1.3-0.9-2.6-1.7-3.9-2.7c-6-6.1-8.5-12.4-8.8-21.1c0.4-9.8,3.8-17.9,10.4-25.1
		C256.2,896.2,268.2,892.8,280.2,897.8z"/>
	<path class="st0" d="M572.8,467.7c5.9,4.6,12.4,11.1,13.5,18.9c0,2.9,0.1,5.9,0.1,8.8c0,1,0.1,2.1,0.1,3c0,8.3-1.8,13.4-7.6,19.6
		c-0.7,0.6-1.3,1.1-2.1,1.7c-0.7,0.6-1.3,1.1-2.1,1.7c-7.6,5.1-15.5,4.6-24.3,4c-7.4-1.5-14.1-5.6-19.5-11
		c-4.8-7.2-7.1-14.6-6.1-23.2c2.6-9.8,7.4-17.8,15.8-23.6C550.5,462.7,563.4,462.1,572.8,467.7z"/>
	<path class="st0" d="M341,838.8c6.8,3.5,12.8,9.5,15.4,16.8c1.5,9.3,2.2,20.5-2.8,28.8c-5.5,6.7-11.3,11-20,12.4
		c-12.9,1.1-20.4-0.9-30.5-9.1c-5.6-5.7-7.6-12.1-8-19.9c0.4-8.9,4.1-16.8,9.8-23.6C315.7,834.2,327.9,833.3,341,838.8z"/>
	<path class="st0" d="M452.7,468.7c6.6,4.4,12.1,11.1,13.8,18.9c1,9.8,1.3,18.8-4.9,26.8c-5.2,6.2-9.5,10.6-17.8,11.3
		c-1.7,0-3.4,0-5.1,0c-0.9,0-1.7,0-2.6,0.1c-9.1,0-16.5-3.7-23.5-9.3c-5.6-5.6-8.2-13.9-8.3-21.7c2-9.8,5.6-17.9,13.7-24.1
		C429.7,463.3,440.5,462,452.7,468.7z"/>
	<path class="st0" d="M271.5,860.7c2.4,2.4,2.4,2.4,2.7,6.7c-0.2,4.3-0.2,4.3-2.7,6.7c-5.2,0.4-7.7,0.6-12.2-2.4
		c-1.5-3.2-1.2-4.6-0.4-8c1.6-2.9,1.6-2.9,3.8-4.6C266.3,858.1,268.2,859,271.5,860.7z"/>
	<path class="st0" d="M500.6,487.7c3.3,4.9,2.7,7.6,2.4,13.4c-1.2,1.2-1.2,1.2-5.2,1.5c-4.6-0.4-6.1-0.9-9.4-3.9
		c0.6-6.7,0.6-6.7,3.4-9.6C495,487.5,497,487.1,500.6,487.7z"/>
</g>
</svg>
