<?xml version="1.0" encoding="UTF-8"?>
<svg xmlns="http://www.w3.org/2000/svg" xmlns:xlink="http://www.w3.org/1999/xlink" width="30px" height="31px" viewBox="0 0 30 31" version="1.1">
<g id="surface1">
<path style=" stroke:none;fill-rule:nonzero;fill:rgb(16.470588%,16.862745%,16.470588%);fill-opacity:1;" d="M 11.992188 6.539062 C 12.039062 6.613281 12.03125 6.675781 12.03125 6.757812 C 12.03125 6.773438 12.03125 6.789062 12.03125 6.808594 C 12.03125 6.867188 12.035156 6.925781 12.035156 6.984375 C 12.035156 7.027344 12.035156 7.066406 12.035156 7.105469 C 12.035156 7.210938 12.039062 7.316406 12.039062 7.421875 C 12.039062 7.53125 12.042969 7.636719 12.046875 7.746094 C 12.046875 7.957031 12.050781 8.171875 12.054688 8.382812 C 12.15625 8.363281 12.203125 8.34375 12.28125 8.289062 C 12.308594 8.265625 12.308594 8.265625 12.335938 8.242188 C 12.355469 8.230469 12.375 8.210938 12.398438 8.199219 C 12.441406 8.167969 12.480469 8.136719 12.523438 8.105469 C 12.539062 8.089844 12.5625 8.074219 12.582031 8.058594 C 12.660156 8 12.742188 7.945312 12.820312 7.886719 C 12.890625 7.839844 12.960938 7.789062 13.03125 7.742188 C 13.121094 7.675781 13.207031 7.613281 13.300781 7.550781 C 13.398438 7.480469 13.492188 7.410156 13.589844 7.339844 C 13.707031 7.257812 13.820312 7.171875 13.941406 7.09375 C 14.039062 7.027344 14.132812 6.957031 14.230469 6.886719 C 14.320312 6.824219 14.40625 6.757812 14.5 6.699219 C 14.546875 6.664062 14.597656 6.625 14.640625 6.589844 C 14.746094 6.625 14.8125 6.675781 14.890625 6.738281 C 14.992188 6.824219 15.101562 6.90625 15.210938 6.980469 C 15.285156 7.03125 15.359375 7.085938 15.429688 7.136719 C 15.589844 7.25 15.753906 7.363281 15.917969 7.476562 C 16.125 7.617188 16.324219 7.757812 16.519531 7.90625 C 16.644531 8 16.78125 8.089844 16.917969 8.179688 C 17.0625 8.273438 17.199219 8.378906 17.332031 8.480469 C 17.421875 8.550781 17.515625 8.613281 17.613281 8.679688 C 17.683594 8.726562 17.753906 8.78125 17.824219 8.832031 C 17.914062 8.894531 18.007812 8.960938 18.097656 9.023438 C 18.214844 9.105469 18.332031 9.191406 18.449219 9.273438 C 18.511719 9.320312 18.578125 9.367188 18.644531 9.410156 C 18.734375 9.472656 18.824219 9.539062 18.917969 9.605469 C 19.078125 9.722656 19.242188 9.835938 19.410156 9.949219 C 19.617188 10.089844 19.820312 10.234375 20.019531 10.378906 C 20.105469 10.441406 20.195312 10.507812 20.285156 10.566406 C 20.351562 10.617188 20.425781 10.664062 20.496094 10.71875 C 20.585938 10.78125 20.679688 10.847656 20.769531 10.910156 C 20.886719 10.992188 21.003906 11.078125 21.121094 11.160156 C 21.183594 11.207031 21.253906 11.253906 21.316406 11.296875 C 21.40625 11.359375 21.496094 11.425781 21.589844 11.492188 C 21.75 11.609375 21.914062 11.722656 22.082031 11.835938 C 22.277344 11.96875 22.472656 12.105469 22.660156 12.246094 C 22.792969 12.34375 22.925781 12.429688 23.066406 12.519531 C 23.148438 12.578125 23.226562 12.636719 23.296875 12.699219 C 23.355469 12.742188 23.417969 12.785156 23.476562 12.828125 C 23.652344 12.949219 23.652344 12.949219 23.714844 13.03125 C 23.710938 13.101562 23.695312 13.136719 23.648438 13.195312 C 23.59375 13.222656 23.59375 13.222656 23.507812 13.21875 C 23.394531 13.195312 23.347656 13.164062 23.261719 13.101562 C 23.234375 13.082031 23.210938 13.0625 23.183594 13.039062 C 23.160156 13.019531 23.132812 13 23.105469 12.980469 C 23.066406 12.953125 23.023438 12.925781 22.984375 12.894531 C 22.894531 12.832031 22.808594 12.769531 22.71875 12.707031 C 22.613281 12.628906 22.5 12.554688 22.386719 12.480469 C 22.292969 12.421875 22.207031 12.359375 22.121094 12.289062 C 22.039062 12.222656 21.953125 12.164062 21.863281 12.105469 C 21.675781 11.988281 21.503906 11.859375 21.328125 11.726562 C 21.199219 11.632812 21.070312 11.539062 20.9375 11.449219 C 20.882812 11.410156 20.828125 11.375 20.777344 11.339844 C 20.75 11.320312 20.75 11.320312 20.722656 11.304688 C 20.582031 11.207031 20.441406 11.105469 20.304688 11.003906 C 20.207031 10.929688 20.105469 10.863281 20 10.792969 C 19.835938 10.6875 19.679688 10.570312 19.519531 10.449219 C 19.382812 10.347656 19.242188 10.25 19.09375 10.15625 C 18.941406 10.054688 18.796875 9.945312 18.65625 9.835938 C 18.5625 9.765625 18.464844 9.695312 18.363281 9.628906 C 18.292969 9.582031 18.226562 9.53125 18.160156 9.484375 C 18.058594 9.410156 17.953125 9.339844 17.84375 9.269531 C 17.660156 9.152344 17.488281 9.023438 17.316406 8.894531 C 17.1875 8.796875 17.058594 8.707031 16.925781 8.613281 C 16.691406 8.457031 16.464844 8.292969 16.238281 8.128906 C 16.097656 8.027344 15.957031 7.925781 15.8125 7.828125 C 15.597656 7.683594 15.386719 7.53125 15.179688 7.378906 C 15.089844 7.3125 14.992188 7.242188 14.898438 7.179688 C 14.851562 7.148438 14.808594 7.117188 14.761719 7.082031 C 14.699219 7.042969 14.699219 7.042969 14.636719 7.050781 C 14.5625 7.074219 14.53125 7.101562 14.476562 7.148438 C 14.382812 7.222656 14.285156 7.292969 14.183594 7.363281 C 14.109375 7.414062 14.039062 7.464844 13.964844 7.519531 C 13.855469 7.601562 13.742188 7.675781 13.632812 7.753906 C 13.5625 7.804688 13.492188 7.855469 13.417969 7.90625 C 13.308594 7.988281 13.195312 8.066406 13.085938 8.140625 C 13.015625 8.191406 12.945312 8.242188 12.871094 8.292969 C 12.78125 8.359375 12.6875 8.425781 12.597656 8.488281 C 12.457031 8.589844 12.3125 8.691406 12.171875 8.792969 C 12.152344 8.804688 12.128906 8.820312 12.109375 8.835938 C 12.035156 8.902344 12.035156 8.933594 12.039062 9.019531 C 12.039062 9.042969 12.039062 9.070312 12.039062 9.09375 C 12.039062 9.121094 12.042969 9.144531 12.042969 9.171875 C 12.042969 9.199219 12.042969 9.226562 12.042969 9.25 C 12.046875 9.316406 12.046875 9.378906 12.046875 9.445312 C 12.125 9.386719 12.183594 9.328125 12.238281 9.257812 C 12.714844 8.734375 13.410156 8.378906 14.210938 8.273438 C 14.851562 8.199219 15.433594 8.253906 16.027344 8.476562 C 16.0625 8.488281 16.097656 8.503906 16.136719 8.519531 C 16.425781 8.632812 16.648438 8.777344 16.875 8.960938 C 16.902344 8.980469 16.925781 9 16.953125 9.019531 C 17.457031 9.4375 17.734375 10.003906 17.757812 10.582031 C 17.761719 10.628906 17.761719 10.628906 17.761719 10.671875 C 17.785156 11.355469 17.484375 11.921875 16.890625 12.421875 C 16.320312 12.890625 15.550781 13.121094 14.734375 13.132812 C 13.796875 13.121094 13.007812 12.808594 12.351562 12.28125 C 12.292969 12.207031 12.292969 12.207031 12.292969 12.152344 C 12.328125 12.074219 12.359375 12.039062 12.441406 11.992188 C 12.570312 11.992188 12.621094 12.011719 12.714844 12.078125 C 12.742188 12.105469 12.773438 12.132812 12.808594 12.160156 C 13.308594 12.578125 14.003906 12.78125 14.71875 12.800781 C 15.480469 12.804688 16.109375 12.5625 16.652344 12.144531 C 17.171875 11.714844 17.351562 11.183594 17.339844 10.597656 C 17.3125 9.996094 16.96875 9.46875 16.421875 9.058594 C 15.882812 8.710938 15.199219 8.546875 14.507812 8.574219 C 13.8125 8.640625 13.105469 8.902344 12.648438 9.339844 C 12.011719 10.039062 12.042969 10.851562 12.046875 11.679688 C 12.046875 11.773438 12.046875 11.863281 12.046875 11.953125 C 12.046875 12.125 12.046875 12.296875 12.046875 12.46875 C 12.046875 12.667969 12.046875 12.863281 12.046875 13.058594 C 12.046875 13.460938 12.046875 13.863281 12.046875 14.265625 C 12.074219 14.265625 12.105469 14.265625 12.140625 14.265625 C 12.886719 14.269531 13.636719 14.273438 14.382812 14.273438 C 14.746094 14.277344 15.105469 14.277344 15.46875 14.28125 C 15.785156 14.28125 16.101562 14.28125 16.417969 14.28125 C 16.585938 14.28125 16.753906 14.28125 16.917969 14.285156 C 17.078125 14.285156 17.230469 14.285156 17.390625 14.285156 C 17.449219 14.285156 17.503906 14.285156 17.5625 14.285156 C 17.640625 14.285156 17.71875 14.285156 17.800781 14.285156 C 17.824219 14.285156 17.84375 14.285156 17.871094 14.285156 C 18.027344 14.289062 18.027344 14.289062 18.0625 14.316406 C 18.0625 14.347656 18.0625 14.382812 18.0625 14.417969 C 18.0625 14.4375 18.0625 14.460938 18.0625 14.484375 C 18.0625 14.507812 18.0625 14.53125 18.0625 14.554688 C 18.0625 14.59375 18.0625 14.59375 18.0625 14.632812 C 18.0625 14.71875 18.0625 14.804688 18.0625 14.890625 C 18.0625 14.953125 18.0625 15.015625 18.0625 15.074219 C 18.0625 15.210938 18.0625 15.34375 18.0625 15.476562 C 18.0625 15.667969 18.0625 15.859375 18.0625 16.050781 C 18.0625 16.363281 18.0625 16.675781 18.0625 16.988281 C 18.0625 17.289062 18.0625 17.59375 18.0625 17.894531 C 18.0625 17.925781 18.0625 17.925781 18.0625 17.949219 C 18.0625 18.046875 18.0625 18.136719 18.0625 18.230469 C 18.0625 19.007812 18.0625 19.785156 18.0625 20.5625 C 17.96875 20.597656 17.894531 20.589844 17.789062 20.585938 C 17.722656 20.5625 17.722656 20.5625 17.667969 20.511719 C 17.652344 20.4375 17.652344 20.359375 17.652344 20.28125 C 17.652344 20.257812 17.652344 20.234375 17.652344 20.210938 C 17.652344 20.128906 17.652344 20.046875 17.652344 19.96875 C 17.652344 19.910156 17.652344 19.851562 17.652344 19.792969 C 17.652344 19.652344 17.652344 19.511719 17.65625 19.371094 C 17.65625 19.207031 17.65625 19.046875 17.65625 18.882812 C 17.65625 18.589844 17.65625 18.296875 17.660156 18.003906 C 17.660156 17.722656 17.664062 17.4375 17.664062 17.152344 C 17.664062 17.136719 17.664062 17.121094 17.664062 17.101562 C 17.664062 16.910156 17.664062 16.71875 17.664062 16.527344 C 17.664062 16.511719 17.664062 16.496094 17.664062 16.476562 C 17.664062 16.378906 17.664062 16.378906 17.664062 16.277344 C 17.664062 16.0625 17.664062 15.855469 17.667969 15.640625 C 17.667969 15.519531 17.667969 15.398438 17.667969 15.277344 C 17.667969 15.222656 17.667969 15.164062 17.667969 15.109375 C 17.667969 15.03125 17.667969 14.953125 17.667969 14.878906 C 17.667969 14.855469 17.667969 14.832031 17.667969 14.808594 C 17.667969 14.757812 17.667969 14.707031 17.664062 14.652344 C 17.613281 14.609375 17.554688 14.625 17.488281 14.625 C 17.453125 14.625 17.453125 14.625 17.421875 14.625 C 17.390625 14.625 17.390625 14.625 17.351562 14.625 C 17.277344 14.625 17.203125 14.625 17.121094 14.625 C 17.066406 14.625 17.011719 14.625 16.957031 14.625 C 16.808594 14.625 16.660156 14.625 16.511719 14.625 C 16.355469 14.625 16.203125 14.625 16.042969 14.625 C 15.785156 14.625 15.523438 14.625 15.261719 14.625 C 14.957031 14.625 14.65625 14.625 14.351562 14.625 C 14.09375 14.625 13.835938 14.625 13.574219 14.625 C 13.421875 14.625 13.265625 14.625 13.113281 14.625 C 12.964844 14.625 12.820312 14.625 12.675781 14.625 C 12.621094 14.625 12.566406 14.625 12.511719 14.625 C 12.441406 14.625 12.367188 14.625 12.292969 14.625 C 12.273438 14.625 12.253906 14.625 12.230469 14.625 C 12.132812 14.617188 12.132812 14.617188 12.050781 14.652344 C 12.046875 14.699219 12.046875 14.746094 12.046875 14.796875 C 12.046875 14.828125 12.046875 14.859375 12.046875 14.890625 C 12.046875 14.921875 12.046875 14.960938 12.046875 14.992188 C 12.046875 15.03125 12.046875 15.066406 12.046875 15.101562 C 12.046875 15.179688 12.046875 15.257812 12.046875 15.335938 C 12.046875 15.460938 12.046875 15.585938 12.046875 15.707031 C 12.046875 16.058594 12.046875 16.414062 12.046875 16.765625 C 12.046875 16.957031 12.042969 17.152344 12.042969 17.34375 C 12.042969 17.445312 12.042969 17.550781 12.042969 17.652344 C 12.042969 17.75 12.042969 17.847656 12.042969 17.945312 C 12.042969 17.980469 12.042969 18.015625 12.042969 18.050781 C 12.046875 18.734375 11.746094 19.328125 11.148438 19.816406 C 10.5 20.316406 9.730469 20.507812 8.84375 20.5 C 8.179688 20.488281 7.519531 20.28125 7.019531 19.9375 C 6.996094 19.917969 6.972656 19.902344 6.945312 19.886719 C 6.351562 19.472656 5.992188 18.917969 5.925781 18.289062 C 5.878906 17.5625 6.15625 16.949219 6.746094 16.402344 C 6.765625 16.382812 6.78125 16.371094 6.796875 16.351562 C 7.195312 16.007812 7.765625 15.785156 8.324219 15.675781 C 8.367188 15.667969 8.367188 15.667969 8.40625 15.65625 C 9.15625 15.535156 9.992188 15.65625 10.632812 15.988281 C 10.910156 16.148438 11.203125 16.320312 11.394531 16.546875 C 11.402344 16.621094 11.40625 16.671875 11.359375 16.738281 C 11.285156 16.769531 11.230469 16.773438 11.148438 16.761719 C 10.984375 16.707031 10.847656 16.582031 10.734375 16.476562 C 10.390625 16.164062 9.71875 15.992188 9.214844 15.960938 C 8.484375 15.933594 7.875 16.09375 7.289062 16.449219 C 7.25 16.484375 7.25 16.484375 7.207031 16.515625 C 7.136719 16.566406 7.136719 16.566406 7.074219 16.566406 C 7.066406 16.582031 7.058594 16.59375 7.050781 16.609375 C 7.015625 16.664062 7.015625 16.664062 6.933594 16.734375 C 6.730469 16.917969 6.59375 17.140625 6.484375 17.371094 C 6.480469 17.386719 6.46875 17.402344 6.464844 17.417969 C 6.230469 17.933594 6.3125 18.5 6.59375 18.996094 C 6.882812 19.480469 7.386719 19.839844 8.015625 20.03125 C 8.625 20.1875 9.292969 20.226562 9.898438 20.054688 C 9.929688 20.046875 9.960938 20.039062 9.996094 20.027344 C 10.570312 19.855469 11.054688 19.492188 11.339844 19.066406 C 11.527344 18.742188 11.601562 18.367188 11.605469 18.015625 C 11.605469 17.984375 11.605469 17.984375 11.605469 17.957031 C 11.605469 17.890625 11.609375 17.828125 11.609375 17.761719 C 11.609375 17.714844 11.609375 17.667969 11.613281 17.621094 C 11.613281 17.492188 11.613281 17.363281 11.613281 17.234375 C 11.613281 17.152344 11.617188 17.070312 11.617188 16.988281 C 11.636719 15.527344 11.632812 14.070312 11.632812 12.609375 C 11.632812 12.347656 11.632812 12.082031 11.632812 11.820312 C 11.632812 11.800781 11.632812 11.78125 11.632812 11.761719 C 11.632812 11.667969 11.632812 11.574219 11.632812 11.480469 C 11.632812 10.710938 11.632812 9.945312 11.632812 9.175781 C 11.597656 9.199219 11.566406 9.21875 11.53125 9.246094 C 11.503906 9.261719 11.503906 9.261719 11.472656 9.28125 C 11.417969 9.320312 11.367188 9.359375 11.3125 9.394531 C 11.234375 9.449219 11.160156 9.5 11.078125 9.550781 C 10.875 9.691406 10.671875 9.832031 10.480469 9.980469 C 10.375 10.058594 10.269531 10.128906 10.160156 10.199219 C 9.976562 10.316406 9.8125 10.445312 9.640625 10.570312 C 9.546875 10.640625 9.449219 10.710938 9.347656 10.78125 C 9.28125 10.828125 9.210938 10.878906 9.140625 10.925781 C 9.03125 11.007812 8.917969 11.085938 8.804688 11.164062 C 8.734375 11.210938 8.664062 11.261719 8.597656 11.3125 C 8.492188 11.386719 8.390625 11.457031 8.28125 11.527344 C 8.121094 11.628906 7.96875 11.742188 7.820312 11.855469 C 7.679688 11.960938 7.535156 12.054688 7.386719 12.152344 C 7.324219 12.191406 7.265625 12.234375 7.210938 12.28125 C 7.128906 12.347656 7.042969 12.40625 6.953125 12.464844 C 6.769531 12.585938 6.59375 12.714844 6.421875 12.84375 C 6.324219 12.917969 6.226562 12.992188 6.125 13.058594 C 6.089844 13.082031 6.058594 13.105469 6.027344 13.132812 C 5.949219 13.191406 5.910156 13.214844 5.800781 13.214844 C 5.699219 13.1875 5.652344 13.164062 5.589844 13.09375 C 5.59375 13.003906 5.621094 12.972656 5.699219 12.902344 C 5.734375 12.878906 5.765625 12.855469 5.800781 12.832031 C 5.816406 12.820312 5.835938 12.804688 5.855469 12.792969 C 5.984375 12.699219 6.121094 12.609375 6.261719 12.519531 C 6.390625 12.433594 6.511719 12.339844 6.636719 12.246094 C 6.777344 12.144531 6.921875 12.046875 7.070312 11.953125 C 7.132812 11.910156 7.191406 11.867188 7.246094 11.820312 C 7.328125 11.753906 7.410156 11.695312 7.503906 11.636719 C 7.6875 11.519531 7.863281 11.386719 8.039062 11.257812 C 8.164062 11.164062 8.296875 11.070312 8.429688 10.976562 C 8.480469 10.941406 8.535156 10.90625 8.585938 10.871094 C 8.605469 10.859375 8.625 10.847656 8.640625 10.835938 C 8.785156 10.738281 8.925781 10.636719 9.0625 10.53125 C 9.15625 10.460938 9.261719 10.390625 9.367188 10.320312 C 9.550781 10.207031 9.71875 10.078125 9.890625 9.949219 C 9.984375 9.878906 10.082031 9.808594 10.179688 9.742188 C 10.25 9.691406 10.320312 9.640625 10.390625 9.59375 C 10.550781 9.476562 10.714844 9.359375 10.882812 9.25 C 10.917969 9.226562 10.957031 9.199219 10.992188 9.175781 C 11.019531 9.15625 11.019531 9.15625 11.046875 9.140625 C 11.203125 9.035156 11.351562 8.921875 11.503906 8.8125 C 11.574219 8.761719 11.574219 8.761719 11.636719 8.734375 C 11.636719 8.710938 11.636719 8.683594 11.636719 8.65625 C 11.636719 8.40625 11.636719 8.15625 11.640625 7.90625 C 11.640625 7.777344 11.644531 7.652344 11.644531 7.523438 C 11.644531 7.398438 11.648438 7.273438 11.648438 7.152344 C 11.648438 7.101562 11.648438 7.058594 11.648438 7.007812 C 11.648438 6.945312 11.648438 6.875 11.652344 6.808594 C 11.652344 6.789062 11.652344 6.773438 11.652344 6.75 C 11.652344 6.617188 11.652344 6.617188 11.707031 6.554688 C 11.792969 6.515625 11.886719 6.535156 11.992188 6.539062 Z M 11.992188 6.539062 "/>
<path style=" stroke:none;fill-rule:nonzero;fill:rgb(16.470588%,16.862745%,16.470588%);fill-opacity:1;" d="M 9.390625 16.316406 C 9.566406 16.425781 9.714844 16.582031 9.746094 16.757812 C 9.761719 16.941406 9.742188 17.128906 9.601562 17.277344 C 9.441406 17.410156 9.316406 17.464844 9.078125 17.472656 C 8.804688 17.472656 8.628906 17.453125 8.421875 17.300781 C 8.28125 17.1875 8.207031 17.054688 8.195312 16.890625 C 8.207031 16.695312 8.300781 16.515625 8.484375 16.382812 C 8.742188 16.230469 9.097656 16.175781 9.390625 16.316406 Z M 9.390625 16.316406 "/>
<path style=" stroke:none;fill-rule:nonzero;fill:rgb(16.470588%,16.862745%,16.470588%);fill-opacity:1;" d="M 15.152344 11.359375 C 15.324219 11.480469 15.441406 11.601562 15.464844 11.789062 C 15.46875 12.03125 15.441406 12.1875 15.234375 12.375 C 15.058594 12.503906 14.863281 12.507812 14.632812 12.503906 C 14.421875 12.488281 14.238281 12.398438 14.089844 12.28125 C 13.96875 12.144531 13.902344 12.011719 13.9375 11.84375 C 13.984375 11.652344 14.074219 11.488281 14.277344 11.371094 C 14.570312 11.234375 14.855469 11.21875 15.152344 11.359375 Z M 15.152344 11.359375 "/>
<path style=" stroke:none;fill-rule:nonzero;fill:rgb(16.470588%,16.862745%,16.470588%);fill-opacity:1;" d="M 7.914062 17.542969 C 8.070312 17.632812 8.1875 17.753906 8.242188 17.898438 C 8.277344 18.101562 8.269531 18.273438 8.132812 18.449219 C 8.023438 18.570312 7.863281 18.644531 7.683594 18.671875 C 7.378906 18.691406 7.160156 18.652344 6.921875 18.5 C 6.78125 18.390625 6.703125 18.25 6.695312 18.089844 C 6.710938 17.894531 6.804688 17.726562 6.988281 17.59375 C 7.285156 17.414062 7.585938 17.402344 7.914062 17.542969 Z M 7.914062 17.542969 "/>
<path style=" stroke:none;fill-rule:nonzero;fill:rgb(16.470588%,16.862745%,16.470588%);fill-opacity:1;" d="M 15.046875 8.90625 C 15.238281 8.992188 15.386719 9.160156 15.457031 9.324219 C 15.476562 9.566406 15.457031 9.746094 15.265625 9.9375 C 15.105469 10.074219 14.957031 10.101562 14.726562 10.109375 C 14.449219 10.101562 14.285156 10.035156 14.085938 9.882812 C 13.9375 9.753906 13.914062 9.621094 13.921875 9.449219 C 13.957031 9.253906 14.082031 9.085938 14.277344 8.964844 C 14.496094 8.855469 14.800781 8.847656 15.046875 8.90625 Z M 15.046875 8.90625 "/>
<path style=" stroke:none;fill-rule:nonzero;fill:rgb(16.470588%,16.862745%,16.470588%);fill-opacity:1;" d="M 9.328125 18.683594 C 9.496094 18.761719 9.648438 18.886719 9.722656 19.035156 C 9.785156 19.230469 9.769531 19.4375 9.65625 19.617188 C 9.550781 19.742188 9.441406 19.820312 9.261719 19.859375 C 9.003906 19.882812 8.746094 19.890625 8.53125 19.761719 C 8.5 19.746094 8.46875 19.730469 8.433594 19.710938 C 8.285156 19.589844 8.222656 19.460938 8.214844 19.289062 C 8.226562 19.097656 8.3125 18.933594 8.476562 18.792969 C 8.730469 18.652344 9.027344 18.582031 9.328125 18.683594 Z M 9.328125 18.683594 "/>
<path style=" stroke:none;fill-rule:nonzero;fill:rgb(16.470588%,16.862745%,16.470588%);fill-opacity:1;" d="M 16.617188 10.136719 C 16.761719 10.230469 16.925781 10.359375 16.953125 10.511719 C 16.953125 10.570312 16.957031 10.628906 16.957031 10.6875 C 16.957031 10.707031 16.957031 10.730469 16.957031 10.75 C 16.957031 10.914062 16.914062 11.015625 16.769531 11.136719 C 16.753906 11.148438 16.738281 11.160156 16.71875 11.171875 C 16.699219 11.183594 16.683594 11.195312 16.667969 11.207031 C 16.480469 11.308594 16.28125 11.296875 16.0625 11.285156 C 15.878906 11.257812 15.710938 11.175781 15.578125 11.066406 C 15.457031 10.925781 15.402344 10.777344 15.425781 10.609375 C 15.488281 10.414062 15.609375 10.253906 15.820312 10.136719 C 16.058594 10.039062 16.382812 10.027344 16.617188 10.136719 Z M 16.617188 10.136719 "/>
<path style=" stroke:none;fill-rule:nonzero;fill:rgb(16.470588%,16.862745%,16.470588%);fill-opacity:1;" d="M 10.839844 17.511719 C 11.011719 17.582031 11.160156 17.699219 11.222656 17.84375 C 11.257812 18.027344 11.277344 18.25 11.152344 18.414062 C 11.015625 18.550781 10.871094 18.632812 10.65625 18.664062 C 10.332031 18.683594 10.148438 18.644531 9.894531 18.480469 C 9.757812 18.367188 9.707031 18.242188 9.695312 18.085938 C 9.703125 17.910156 9.796875 17.753906 9.9375 17.617188 C 10.210938 17.417969 10.515625 17.402344 10.839844 17.511719 Z M 10.839844 17.511719 "/>
<path style=" stroke:none;fill-rule:nonzero;fill:rgb(16.470588%,16.862745%,16.470588%);fill-opacity:1;" d="M 13.625 10.15625 C 13.789062 10.246094 13.925781 10.378906 13.96875 10.53125 C 13.992188 10.726562 14 10.90625 13.847656 11.066406 C 13.714844 11.1875 13.609375 11.277344 13.402344 11.289062 C 13.359375 11.289062 13.316406 11.289062 13.273438 11.289062 C 13.253906 11.289062 13.234375 11.289062 13.210938 11.292969 C 12.984375 11.292969 12.800781 11.21875 12.625 11.109375 C 12.484375 10.996094 12.421875 10.832031 12.417969 10.679688 C 12.46875 10.484375 12.558594 10.320312 12.757812 10.199219 C 13.050781 10.050781 13.320312 10.023438 13.625 10.15625 Z M 13.625 10.15625 "/>
<path style=" stroke:none;fill-rule:nonzero;fill:rgb(16.470588%,16.862745%,16.470588%);fill-opacity:1;" d="M 9.109375 17.945312 C 9.171875 17.996094 9.171875 17.996094 9.175781 18.078125 C 9.171875 18.164062 9.171875 18.164062 9.109375 18.210938 C 8.980469 18.21875 8.917969 18.226562 8.804688 18.164062 C 8.769531 18.101562 8.773438 18.070312 8.796875 18.003906 C 8.835938 17.945312 8.835938 17.945312 8.890625 17.914062 C 8.980469 17.894531 9.027344 17.914062 9.109375 17.945312 Z M 9.109375 17.945312 "/>
<path style=" stroke:none;fill-rule:nonzero;fill:rgb(16.470588%,16.862745%,16.470588%);fill-opacity:1;" d="M 14.816406 10.535156 C 14.898438 10.632812 14.882812 10.683594 14.878906 10.800781 C 14.847656 10.824219 14.847656 10.824219 14.746094 10.832031 C 14.632812 10.824219 14.597656 10.8125 14.515625 10.753906 C 14.53125 10.621094 14.53125 10.621094 14.597656 10.5625 C 14.679688 10.53125 14.726562 10.523438 14.816406 10.535156 Z M 14.816406 10.535156 "/>
</g>
</svg>
