<?xml version="1.0" encoding="utf-8"?>
<!-- Generator: Adobe Illustrator 28.0.0, SVG Export Plug-In . SVG Version: 6.00 Build 0)  -->
<svg version="1.1" id="Layer_1" xmlns="http://www.w3.org/2000/svg" xmlns:xlink="http://www.w3.org/1999/xlink" x="0px" y="0px"
	 viewBox="0 0 677.5 677.2" style="enable-background:new 0 0 677.5 677.2;" xml:space="preserve">
<style type="text/css">
	.st0{fill:#FFFFFF;}
</style>
<g>
	<path class="st0" d="M331.2,322.2c0.1,0.2,0.1,0.3,0.1,0.5c0,0,0,0.1,0,0.1c0,0.1,0,0.3,0,0.4c0,0.1,0,0.2,0,0.3c0,0.2,0,0.5,0,0.7
		c0,0.2,0,0.5,0,0.7c0,0.5,0,1,0,1.4c0.2,0,0.3-0.1,0.4-0.2c0.1,0,0.1,0,0.1-0.1c0,0,0.1-0.1,0.1-0.1c0.1-0.1,0.1-0.1,0.2-0.2
		c0,0,0.1-0.1,0.1-0.1c0.1-0.1,0.3-0.3,0.4-0.4c0.1-0.1,0.3-0.2,0.4-0.3c0.2-0.1,0.3-0.3,0.5-0.4c0.2-0.2,0.4-0.3,0.5-0.5
		c0.2-0.2,0.4-0.4,0.6-0.6c0.2-0.2,0.4-0.3,0.5-0.5c0.2-0.1,0.3-0.3,0.5-0.4c0.1-0.1,0.2-0.2,0.3-0.2c0.2,0.1,0.3,0.2,0.5,0.3
		c0.2,0.2,0.4,0.4,0.6,0.6c0.1,0.1,0.3,0.2,0.4,0.3c0.3,0.3,0.6,0.5,0.9,0.8c0.4,0.3,0.7,0.6,1.1,1c0.2,0.2,0.5,0.4,0.7,0.6
		c0.3,0.2,0.5,0.4,0.8,0.7c0.2,0.2,0.3,0.3,0.5,0.5c0.1,0.1,0.3,0.2,0.4,0.3c0.2,0.1,0.3,0.3,0.5,0.4c0.2,0.2,0.4,0.4,0.6,0.6
		c0.1,0.1,0.2,0.2,0.4,0.3c0.2,0.1,0.3,0.3,0.5,0.4c0.3,0.3,0.6,0.5,0.9,0.8c0.4,0.3,0.7,0.6,1.1,1c0.2,0.1,0.3,0.3,0.5,0.4
		c0.1,0.1,0.3,0.2,0.4,0.3c0.2,0.1,0.3,0.3,0.5,0.4c0.2,0.2,0.4,0.4,0.6,0.6c0.1,0.1,0.2,0.2,0.4,0.3c0.2,0.1,0.3,0.3,0.5,0.4
		c0.3,0.3,0.6,0.5,0.9,0.8c0.4,0.3,0.7,0.6,1.1,0.9c0.2,0.2,0.5,0.4,0.7,0.6c0.2,0.1,0.3,0.3,0.4,0.4c0.1,0.1,0.2,0.2,0.3,0.3
		c0.3,0.3,0.3,0.3,0.4,0.5c0,0.2,0,0.2-0.1,0.4c-0.1,0.1-0.1,0.1-0.3,0.1c-0.2-0.1-0.3-0.1-0.4-0.3c0,0-0.1-0.1-0.1-0.1
		c0,0-0.1-0.1-0.1-0.1c-0.1-0.1-0.1-0.1-0.2-0.2c-0.2-0.1-0.3-0.3-0.5-0.4c-0.2-0.2-0.4-0.3-0.6-0.5c-0.2-0.1-0.3-0.3-0.5-0.4
		c-0.1-0.2-0.3-0.3-0.5-0.4c-0.3-0.3-0.7-0.6-1-0.9c-0.2-0.2-0.5-0.4-0.7-0.6c-0.1-0.1-0.2-0.2-0.3-0.2c0,0,0,0-0.1-0.1
		c-0.3-0.2-0.5-0.5-0.8-0.7c-0.2-0.2-0.4-0.3-0.5-0.5c-0.3-0.2-0.6-0.5-0.9-0.8c-0.2-0.2-0.5-0.5-0.8-0.7c-0.3-0.2-0.5-0.5-0.8-0.7
		c-0.2-0.2-0.3-0.3-0.5-0.5c-0.1-0.1-0.2-0.2-0.4-0.3c-0.2-0.2-0.4-0.3-0.6-0.5c-0.3-0.3-0.6-0.6-1-0.9c-0.2-0.2-0.5-0.4-0.7-0.6
		c-0.4-0.4-0.8-0.7-1.2-1.1c-0.3-0.2-0.5-0.5-0.8-0.7c-0.4-0.3-0.8-0.7-1.2-1c-0.2-0.2-0.3-0.3-0.5-0.5c-0.1-0.1-0.2-0.1-0.2-0.2
		c-0.1-0.1-0.1-0.1-0.2-0.1c-0.1,0.1-0.2,0.1-0.3,0.2c-0.2,0.2-0.3,0.3-0.5,0.5c-0.1,0.1-0.3,0.2-0.4,0.4c-0.2,0.2-0.4,0.4-0.6,0.5
		c-0.1,0.1-0.3,0.2-0.4,0.3c-0.2,0.2-0.4,0.4-0.6,0.5c-0.1,0.1-0.3,0.2-0.4,0.3c-0.2,0.1-0.3,0.3-0.5,0.4c-0.3,0.2-0.5,0.5-0.8,0.7
		c0,0-0.1,0.1-0.1,0.1c-0.1,0.2-0.1,0.2-0.1,0.4c0,0.1,0,0.1,0,0.2c0,0.1,0,0.1,0,0.2c0,0.1,0,0.1,0,0.2c0,0.1,0,0.3,0,0.4
		c0.1-0.1,0.2-0.3,0.3-0.4c0.9-1.2,2.1-2,3.6-2.2c1.2-0.2,2.2,0,3.3,0.5c0.1,0,0.1,0.1,0.2,0.1c0.5,0.3,0.9,0.6,1.3,1
		c0,0,0.1,0.1,0.1,0.1c0.9,1,1.4,2.2,1.5,3.6c0,0.1,0,0.1,0,0.2c0,1.6-0.5,2.8-1.6,4c-1,1.1-2.4,1.6-3.9,1.6c-1.7,0-3.1-0.7-4.3-1.9
		c-0.1-0.2-0.1-0.2-0.1-0.3c0.1-0.2,0.1-0.3,0.3-0.4c0.2,0,0.3,0,0.5,0.2c0.1,0.1,0.1,0.1,0.2,0.2c0.9,1,2.2,1.4,3.5,1.5
		c1.4,0,2.5-0.5,3.5-1.5c0.9-1,1.3-2.2,1.2-3.5c0-1.4-0.7-2.6-1.7-3.5c-1-0.8-2.2-1.2-3.5-1.1c-1.3,0.1-2.5,0.7-3.4,1.7
		c-1.2,1.6-1.1,3.4-1.1,5.3c0,0.2,0,0.4,0,0.6c0,0.4,0,0.8,0,1.2c0,0.4,0,0.9,0,1.3c0,0.9,0,1.8,0,2.7c0.1,0,0.1,0,0.2,0
		c1.4,0,2.7,0,4.1,0c0.7,0,1.3,0,2,0c0.6,0,1.1,0,1.7,0c0.3,0,0.6,0,0.9,0c0.3,0,0.6,0,0.9,0c0.1,0,0.2,0,0.3,0c0.1,0,0.3,0,0.4,0
		c0,0,0.1,0,0.1,0c0.3,0,0.3,0,0.3,0.1c0,0.1,0,0.2,0,0.2c0,0,0,0.1,0,0.2c0,0.1,0,0.1,0,0.2c0,0.1,0,0.1,0,0.2c0,0.2,0,0.4,0,0.6
		c0,0.1,0,0.3,0,0.4c0,0.3,0,0.6,0,0.9c0,0.4,0,0.9,0,1.3c0,0.7,0,1.4,0,2.1c0,0.7,0,1.4,0,2.1c0,0.1,0,0.1,0,0.1c0,0.2,0,0.4,0,0.6
		c0,1.8,0,3.5,0,5.3c-0.2,0.1-0.3,0.1-0.5,0.1c-0.1-0.1-0.1-0.1-0.2-0.2c0-0.2,0-0.3,0-0.5c0-0.1,0-0.1,0-0.2c0-0.2,0-0.4,0-0.6
		c0-0.1,0-0.3,0-0.4c0-0.3,0-0.6,0-1c0-0.4,0-0.7,0-1.1c0-0.7,0-1.3,0-2c0-0.6,0-1.3,0-1.9c0,0,0-0.1,0-0.1c0-0.4,0-0.9,0-1.3
		c0,0,0-0.1,0-0.1c0-0.2,0-0.2,0-0.5c0-0.5,0-1,0-1.4c0-0.3,0-0.6,0-0.8c0-0.1,0-0.3,0-0.4c0-0.2,0-0.3,0-0.5c0-0.1,0-0.1,0-0.2
		c0-0.1,0-0.2,0-0.4c-0.1-0.1-0.2-0.1-0.3-0.1c-0.1,0-0.1,0-0.1,0c-0.1,0-0.1,0-0.1,0c-0.1,0-0.3,0-0.4,0c-0.1,0-0.2,0-0.3,0
		c-0.3,0-0.5,0-0.8,0c-0.3,0-0.6,0-0.8,0c-0.5,0-0.9,0-1.4,0c-0.5,0-1.1,0-1.6,0c-0.5,0-0.9,0-1.4,0c-0.3,0-0.6,0-0.8,0
		c-0.3,0-0.5,0-0.8,0c-0.1,0-0.2,0-0.3,0c-0.1,0-0.3,0-0.4,0c0,0-0.1,0-0.1,0c-0.2,0-0.2,0-0.3,0.1c0,0.1,0,0.2,0,0.3
		c0,0.1,0,0.1,0,0.2c0,0.1,0,0.2,0,0.2c0,0.1,0,0.2,0,0.2c0,0.2,0,0.4,0,0.5c0,0.3,0,0.6,0,0.8c0,0.8,0,1.6,0,2.4c0,0.4,0,0.9,0,1.3
		c0,0.2,0,0.5,0,0.7c0,0.2,0,0.4,0,0.7c0,0.1,0,0.2,0,0.2c0,1.6-0.5,2.9-1.6,4c-1.2,1.1-2.6,1.6-4.2,1.5c-1.2,0-2.4-0.5-3.3-1.3
		c0,0-0.1-0.1-0.1-0.1c-1.1-0.9-1.7-2.2-1.8-3.6c-0.1-1.7,0.4-3,1.5-4.3c0,0,0.1-0.1,0.1-0.1c0.7-0.8,1.7-1.3,2.8-1.5
		c0.1,0,0.1,0,0.2,0c1.4-0.3,2.9,0,4,0.8c0.5,0.4,1,0.8,1.4,1.3c0,0.2,0,0.3-0.1,0.4c-0.1,0.1-0.2,0.1-0.4,0.1
		c-0.3-0.1-0.5-0.4-0.8-0.6c-0.6-0.7-1.8-1.1-2.8-1.2c-1.3-0.1-2.4,0.3-3.5,1.1c-0.1,0.1-0.1,0.1-0.1,0.2c-0.1,0.1-0.1,0.1-0.2,0.1
		c0,0,0,0.1,0,0.1c-0.1,0.1-0.1,0.1-0.2,0.3c-0.4,0.4-0.6,0.9-0.8,1.5c0,0,0,0.1,0,0.1c-0.4,1.2-0.3,2.5,0.2,3.6
		c0.5,1.1,1.4,1.9,2.6,2.4c1.1,0.4,2.3,0.4,3.4,0.1c0.1,0,0.1,0,0.2-0.1c1-0.4,1.9-1.2,2.4-2.2c0.3-0.7,0.5-1.6,0.5-2.4
		c0-0.1,0-0.1,0-0.1c0-0.1,0-0.3,0-0.4c0-0.1,0-0.2,0-0.3c0-0.3,0-0.6,0-0.9c0-0.2,0-0.4,0-0.6c0-3.3,0-6.6,0-9.9c0-0.6,0-1.2,0-1.8
		c0,0,0-0.1,0-0.1c0-0.2,0-0.4,0-0.6c0-1.7,0-3.5,0-5.2c-0.1,0.1-0.1,0.1-0.2,0.2c-0.1,0-0.1,0-0.1,0.1c-0.1,0.1-0.2,0.2-0.3,0.3
		c-0.1,0.1-0.3,0.2-0.4,0.4c-0.4,0.3-0.7,0.6-1.1,1c-0.2,0.2-0.4,0.3-0.6,0.5c-0.3,0.3-0.6,0.6-0.9,0.8c-0.2,0.2-0.3,0.3-0.5,0.5
		c-0.1,0.1-0.3,0.2-0.4,0.3c-0.2,0.2-0.4,0.4-0.6,0.5c-0.1,0.1-0.3,0.2-0.4,0.3c-0.2,0.2-0.4,0.3-0.6,0.5c-0.3,0.2-0.6,0.5-0.8,0.8
		c-0.3,0.2-0.5,0.5-0.8,0.7c-0.1,0.1-0.2,0.2-0.3,0.3c-0.1,0.2-0.3,0.3-0.5,0.4c-0.3,0.3-0.6,0.6-1,0.9c-0.2,0.2-0.4,0.3-0.5,0.5
		c-0.1,0.1-0.1,0.1-0.2,0.2c-0.1,0.1-0.2,0.2-0.4,0.2c-0.2-0.1-0.3-0.1-0.4-0.3c0-0.2,0.1-0.3,0.2-0.4c0.1-0.1,0.1-0.1,0.2-0.2
		c0,0,0.1-0.1,0.1-0.1c0.2-0.2,0.5-0.4,0.7-0.6c0.2-0.2,0.5-0.4,0.7-0.6c0.3-0.2,0.5-0.5,0.8-0.7c0.1-0.1,0.2-0.2,0.3-0.3
		c0.1-0.2,0.3-0.3,0.5-0.4c0.3-0.3,0.7-0.6,1-0.9c0.2-0.2,0.5-0.4,0.7-0.6c0.1-0.1,0.2-0.2,0.3-0.2c0,0,0.1-0.1,0.1-0.1
		c0.3-0.2,0.5-0.5,0.8-0.7c0.2-0.2,0.4-0.3,0.6-0.5c0.3-0.3,0.6-0.6,0.9-0.8c0.2-0.2,0.3-0.3,0.5-0.5c0.1-0.1,0.3-0.2,0.4-0.3
		c0.3-0.3,0.6-0.5,0.9-0.8c0.1-0.1,0.1-0.1,0.2-0.2c0,0,0,0,0.1-0.1c0.3-0.2,0.6-0.5,0.8-0.7c0.1-0.1,0.1-0.1,0.2-0.2
		c0-0.1,0-0.1,0-0.2c0-0.6,0-1.1,0-1.7c0-0.3,0-0.6,0-0.9c0-0.3,0-0.6,0-0.8c0-0.1,0-0.2,0-0.3c0-0.2,0-0.3,0-0.5c0,0,0-0.1,0-0.1
		c0-0.3,0-0.3,0.1-0.4C330.9,322.2,331.1,322.2,331.2,322.2z"/>
	<path class="st0" d="M326.5,344.4c0.3,0.2,0.6,0.6,0.6,1c0,0.4,0,0.8-0.3,1.2c-0.3,0.3-0.5,0.4-0.9,0.4c-0.5,0-0.8,0-1.2-0.4
		c-0.3-0.3-0.4-0.6-0.4-0.9c0-0.4,0.2-0.9,0.5-1.2C325.4,344.2,326,344.1,326.5,344.4z"/>
	<path class="st0" d="M337,333.2c0.3,0.3,0.5,0.5,0.6,1c0,0.6,0,0.9-0.4,1.3c-0.3,0.3-0.7,0.3-1.1,0.3c-0.4,0-0.7-0.2-1-0.5
		c-0.2-0.3-0.3-0.6-0.3-1c0.1-0.4,0.2-0.8,0.6-1.1C335.9,332.9,336.4,332.9,337,333.2z"/>
	<path class="st0" d="M323.8,347.2c0.3,0.2,0.5,0.5,0.6,0.8c0.1,0.5,0.1,0.8-0.2,1.2c-0.2,0.3-0.5,0.4-0.8,0.5c-0.5,0-0.9,0-1.4-0.4
		c-0.3-0.3-0.4-0.6-0.4-0.9c0-0.5,0.2-0.8,0.5-1.1C322.7,346.9,323.3,346.9,323.8,347.2z"/>
	<path class="st0" d="M336.8,327.6c0.3,0.2,0.6,0.6,0.7,0.9c0,0.6,0,1-0.3,1.4c-0.3,0.3-0.6,0.4-1,0.4c-0.5,0-0.8-0.2-1.2-0.5
		c-0.3-0.3-0.3-0.6-0.3-1c0.1-0.4,0.3-0.8,0.6-1.1C335.8,327.5,336.3,327.5,336.8,327.6z"/>
	<path class="st0" d="M326.4,349.8c0.3,0.2,0.6,0.5,0.7,0.8c0.1,0.5,0.1,0.9-0.1,1.3c-0.2,0.3-0.4,0.5-0.7,0.6
		c-0.5,0-0.9,0.1-1.3-0.2c-0.1,0-0.1-0.1-0.2-0.1c-0.3-0.3-0.4-0.6-0.4-0.9c0-0.4,0.2-0.8,0.5-1.1
		C325.3,349.7,325.9,349.6,326.4,349.8z"/>
	<path class="st0" d="M339.6,330.4c0.3,0.2,0.6,0.5,0.6,0.9c0,0.1,0,0.3,0,0.4c0,0,0,0.1,0,0.1c0,0.4-0.1,0.6-0.3,0.9
		c0,0-0.1,0.1-0.1,0.1c0,0-0.1,0.1-0.1,0.1c-0.3,0.2-0.7,0.2-1.1,0.2c-0.3-0.1-0.6-0.3-0.9-0.5c-0.2-0.3-0.3-0.7-0.3-1
		c0.1-0.4,0.3-0.8,0.7-1.1C338.6,330.2,339.2,330.2,339.6,330.4z"/>
	<path class="st0" d="M329.2,347.2c0.3,0.2,0.6,0.4,0.7,0.8c0.1,0.4,0.1,0.9-0.1,1.3c-0.2,0.3-0.5,0.5-0.9,0.6
		c-0.6,0.1-0.9,0-1.4-0.4c-0.3-0.3-0.3-0.5-0.4-0.9c0-0.4,0.2-0.8,0.4-1.1C328,346.9,328.6,346.9,329.2,347.2z"/>
	<path class="st0" d="M334.2,330.5c0.3,0.2,0.5,0.5,0.6,0.9c0,0.4,0.1,0.8-0.2,1.2c-0.2,0.3-0.4,0.5-0.8,0.5c-0.1,0-0.2,0-0.2,0
		c0,0-0.1,0-0.1,0c-0.4,0-0.7-0.2-1.1-0.4c-0.3-0.3-0.4-0.6-0.4-1c0.1-0.4,0.3-0.8,0.6-1.1C333.2,330.2,333.6,330.2,334.2,330.5z"/>
	<path class="st0" d="M326,348.1c0.1,0.1,0.1,0.1,0.1,0.3c0,0.2,0,0.2-0.1,0.3c-0.2,0-0.3,0-0.6-0.1c-0.1-0.1-0.1-0.2,0-0.4
		c0.1-0.1,0.1-0.1,0.2-0.2C325.8,348,325.9,348.1,326,348.1z"/>
	<path class="st0" d="M336.4,331.3c0.1,0.2,0.1,0.3,0.1,0.6c-0.1,0.1-0.1,0.1-0.2,0.1c-0.2,0-0.3,0-0.4-0.2c0-0.3,0-0.3,0.2-0.4
		C336.1,331.3,336.2,331.3,336.4,331.3z"/>
</g>
</svg>
